<svg width="19" height="19" viewBox="0 0 19 19" fill="none" xmlns="http://www.w3.org/2000/svg">
<path d="M1 4C1 2.89543 1.89543 2 3 2H16C17.1046 2 18 2.89543 18 4V6H1V4Z" fill="#F305EA"/>
<path d="M1 6H18M4.77778 1V3M14.2222 1V3M3.83333 10H5.72222M3.83333 14H5.72222M8.55556 10H10.4444M8.55556 14H10.4444M13.2778 10H15.1667M13.2778 14H15.1667M4.02222 18H14.9778C16.0357 18 16.5646 18 16.9686 17.782C17.3241 17.5903 17.613 17.2843 17.7941 16.908C18 16.4802 18 15.9201 18 14.8V5.2C18 4.07989 18 3.51984 17.7941 3.09202C17.613 2.71569 17.3241 2.40973 16.9686 2.21799C16.5646 2 16.0357 2 14.9778 2H4.02222C2.96435 2 2.43541 2 2.03135 2.21799C1.67593 2.40973 1.38697 2.71569 1.20588 3.09202C1 3.51984 1 4.07989 1 5.2V14.8C1 15.9201 1 16.4802 1.20588 16.908C1.38697 17.2843 1.67593 17.5903 2.03135 17.782C2.43541 18 2.96435 18 4.02222 18Z" stroke="#555555" stroke-width="1.5" stroke-linecap="round" stroke-linejoin="round"/>
</svg>
