<svg width="18" height="19" viewBox="0 0 18 19" fill="none" xmlns="http://www.w3.org/2000/svg">
<path d="M5.88312 10.1032C6.29643 10.1032 6.63148 9.76811 6.63148 9.3548C6.63148 8.9415 6.29643 8.60645 5.88312 8.60645C5.46982 8.60645 5.13477 8.9415 5.13477 9.3548C5.13477 9.76811 5.46982 10.1032 5.88312 10.1032Z" fill="#9887FF"/>
<path d="M8.86945 10.1032C9.28276 10.1032 9.61781 9.76811 9.61781 9.3548C9.61781 8.9415 9.28276 8.60645 8.86945 8.60645C8.45614 8.60645 8.12109 8.9415 8.12109 9.3548C8.12109 9.76811 8.45614 10.1032 8.86945 10.1032Z" fill="#9887FF"/>
<path d="M11.8558 10.1032C12.2691 10.1032 12.6041 9.76811 12.6041 9.3548C12.6041 8.9415 12.2691 8.60645 11.8558 8.60645C11.4425 8.60645 11.1074 8.9415 11.1074 9.3548C11.1074 9.76811 11.4425 10.1032 11.8558 10.1032Z" fill="#9887FF"/>
<path d="M15.0013 12.1169H14.9941C15.3719 11.2741 15.5898 10.3368 15.5898 9.35596C15.5898 5.64322 12.5819 2.63525 8.86914 2.63525C5.15641 2.63525 2.14844 5.64322 2.14844 9.35596C2.14844 13.0687 5.15641 16.0767 8.86914 16.0767C9.96625 16.0767 11.0052 15.8078 11.9207 15.3428L15.5535 15.8805L15.0013 12.1169Z" stroke="#9887FF" stroke-linecap="round" stroke-linejoin="round"/>
</svg>
