<svg width="19" height="19" viewBox="0 0 19 19" fill="none" xmlns="http://www.w3.org/2000/svg">
<path d="M9.5 7.12V9.89834C9.5 10.0787 9.57164 10.2516 9.69917 10.3792L11.2 11.88M1 5.08V4.4C1 2.52223 2.52223 1 4.4 1H5.08M13.92 1L14.6 1C16.4778 1 18 2.52223 18 4.4V5.08M4.06 15.62L1.68 18M17.32 18L14.94 15.62M16.98 10.18C16.98 14.3111 13.6311 17.66 9.5 17.66C5.36891 17.66 2.02 14.3111 2.02 10.18C2.02 6.04891 5.36891 2.7 9.5 2.7C13.6311 2.7 16.98 6.04891 16.98 10.18Z" stroke="white" stroke-width="1.5" stroke-linecap="round"/>
</svg>
