<svg width="15" height="15" viewBox="0 0 15 15" fill="none" xmlns="http://www.w3.org/2000/svg">
<path d="M4.93122 8.14297C5.28676 8.14297 5.57497 7.85475 5.57497 7.49922C5.57497 7.14369 5.28676 6.85547 4.93122 6.85547C4.57569 6.85547 4.28748 7.14369 4.28748 7.49922C4.28748 7.85475 4.57569 8.14297 4.93122 8.14297Z" fill="#606D92"/>
<path d="M7.49995 8.14297C7.85548 8.14297 8.1437 7.85475 8.1437 7.49922C8.1437 7.14369 7.85548 6.85547 7.49995 6.85547C7.14442 6.85547 6.8562 7.14369 6.8562 7.49922C6.8562 7.85475 7.14442 8.14297 7.49995 8.14297Z" fill="#606D92"/>
<path d="M10.0687 8.14297C10.4242 8.14297 10.7124 7.85475 10.7124 7.49922C10.7124 7.14369 10.4242 6.85547 10.0687 6.85547C9.71314 6.85547 9.42493 7.14369 9.42493 7.49922C9.42493 7.85475 9.71314 8.14297 10.0687 8.14297Z" fill="#606D92"/>
<path d="M12.775 9.875H12.7687C13.0937 9.15 13.2812 8.34375 13.2812 7.5C13.2812 4.30625 10.6938 1.71875 7.5 1.71875C4.30625 1.71875 1.71875 4.30625 1.71875 7.5C1.71875 10.6938 4.30625 13.2812 7.5 13.2812C8.44375 13.2812 9.3375 13.05 10.125 12.65L13.25 13.1125L12.775 9.875Z" stroke="#606D92" stroke-linecap="round" stroke-linejoin="round"/>
</svg>
