<svg width="19" height="19" viewBox="0 0 19 19" fill="none" xmlns="http://www.w3.org/2000/svg">
<path d="M0.738281 5.99902H17.7383M4.51606 0.999023V2.99902M13.9605 0.999023V2.99902M3.57161 9.99902H5.4605M3.57161 13.999H5.4605M8.29384 9.99902H10.1827M8.29384 13.999H10.1827M13.0161 9.99902H14.9049M13.0161 13.999H14.9049M3.7605 17.999H14.7161C15.7739 17.999 16.3029 17.999 16.7069 17.781C17.0623 17.5893 17.3513 17.2833 17.5324 16.907C17.7383 16.4792 17.7383 15.9191 17.7383 14.799V5.19902C17.7383 4.07892 17.7383 3.51887 17.5324 3.09104C17.3513 2.71472 17.0623 2.40876 16.7069 2.21701C16.3029 1.99902 15.7739 1.99902 14.7161 1.99902H3.7605C2.70263 1.99902 2.17369 1.99902 1.76963 2.21701C1.41422 2.40876 1.12525 2.71472 0.944158 3.09104C0.738281 3.51887 0.738281 4.07892 0.738281 5.19902V14.799C0.738281 15.9191 0.738281 16.4792 0.944158 16.907C1.12525 17.2833 1.41422 17.5893 1.76963 17.781C2.17369 17.999 2.70263 17.999 3.7605 17.999Z" stroke="#C2C2C2" stroke-linecap="round" stroke-linejoin="round"/>
</svg>
