<svg width="33" height="33" viewBox="0 0 33 33" fill="none" xmlns="http://www.w3.org/2000/svg">
<path fill-rule="evenodd" clip-rule="evenodd" d="M14 15.308C12.7323 15.9049 11.7121 16.9418 11.1369 18.2234L11.1239 18.2525L11.1239 18.2525C10.9744 18.5856 10.8426 18.8793 10.7221 19.1067C10.6063 19.3253 10.4354 19.616 10.1592 19.8306C10.0599 19.9077 9.98196 19.9582 9.87094 20.0172C9.58497 20.1692 9.29449 20.2142 9.0559 20.2333C8.83264 20.2512 8.56499 20.2511 8.28307 20.2511L8.25 20.2511C6.52411 20.2511 5.125 21.6502 5.125 23.3761C5.125 25.102 6.52411 26.5011 8.25 26.5011H16.5H24.875C26.5319 26.5011 27.875 25.158 27.875 23.5011V23.2511C27.875 21.5943 26.5319 20.2511 24.875 20.2511L24.8366 20.2511C24.5104 20.2512 24.2007 20.2512 23.9436 20.2274C23.6674 20.2018 23.3329 20.141 23.0157 19.9397C22.6723 19.7218 22.4621 19.3916 22.3211 19.1424C22.1747 18.8837 22.0157 18.5456 21.8352 18.162L21.8352 18.162L21.8195 18.1285C21.237 16.8906 20.2362 15.89 19 15.308V13.1563C21.0481 13.8415 22.7203 15.3453 23.6292 17.2771C23.8302 17.7043 23.9571 17.9725 24.0618 18.1575C24.0793 18.1885 24.0944 18.2137 24.107 18.2338L24.1279 18.2359C24.2814 18.2501 24.4964 18.2511 24.875 18.2511C27.6364 18.2511 29.875 20.4897 29.875 23.2511V23.5011C29.875 26.2625 27.6364 28.5011 24.875 28.5011H16.5H8.25C5.41954 28.5011 3.125 26.2066 3.125 23.3761C3.125 20.5457 5.41954 18.2511 8.25 18.2511C8.57698 18.2511 8.76285 18.2504 8.89641 18.2397L8.9176 18.2378C8.92797 18.2199 8.94036 18.1977 8.95478 18.1705C9.04076 18.0082 9.14578 17.7754 9.31225 17.4045C10.2068 15.4114 11.9072 13.8564 14 13.1562V15.308Z" fill="#606060"/>
<path d="M16.5 4.125L15.7929 3.41789L16.5 2.71079L17.2071 3.41789L16.5 4.125ZM17.5 17.875C17.5 18.4273 17.0523 18.875 16.5 18.875C15.9477 18.875 15.5 18.4273 15.5 17.875L17.5 17.875ZM10.2929 8.91789L15.7929 3.41789L17.2071 4.83211L11.7071 10.3321L10.2929 8.91789ZM17.2071 3.41789L22.7071 8.91789L21.2929 10.3321L15.7929 4.83211L17.2071 3.41789ZM17.5 4.125L17.5 17.875L15.5 17.875L15.5 4.125L17.5 4.125Z" fill="#606060"/>
</svg>
