<svg width="20" height="20" viewBox="0 0 20 20" fill="none" xmlns="http://www.w3.org/2000/svg">
<path fill-rule="evenodd" clip-rule="evenodd" d="M14.4597 8.8743L15.8341 7.49994L15.8341 7.49992C16.0686 7.26543 16.1858 7.14818 16.2703 7.03599C16.8063 6.32377 16.8063 5.34278 16.2703 4.63057C16.1858 4.51837 16.0686 4.40112 15.8341 4.16663L15.8341 4.16661L15.8341 4.16658C15.5996 3.9321 15.4823 3.81485 15.3701 3.73041C14.6579 3.19436 13.6769 3.19436 12.9647 3.73041C12.8525 3.81485 12.7353 3.9321 12.5008 4.16658L12.5007 4.16661L11.1071 5.56023C11.904 6.94047 13.0608 8.08825 14.4597 8.8743ZM9.65253 7.01482L4.19046 12.4769C3.7654 12.902 3.55287 13.1145 3.41314 13.3756C3.2734 13.6367 3.21446 13.9314 3.09657 14.5209L2.64784 16.7645C2.58131 17.0971 2.54805 17.2634 2.64266 17.358C2.73727 17.4526 2.90357 17.4194 3.23618 17.3529H3.23618L5.47983 16.9041C6.06928 16.7862 6.36401 16.7273 6.62511 16.5876C6.8862 16.4478 7.09873 16.2353 7.52379 15.8102L13.0014 10.3327C11.6535 9.48191 10.5114 8.34748 9.65253 7.01482Z" fill="white"/>
</svg>
