<svg width="15" height="15" viewBox="0 0 15 15" fill="none" xmlns="http://www.w3.org/2000/svg">
<path d="M1 7.28634C1 10.9825 3.91015 13.9789 7.5 13.9789C11.0898 13.9789 14 10.9825 14 7.28634C14 3.59012 11.0898 0.59375 7.5 0.59375C3.91015 0.59375 1 3.59012 1 7.28634Z" stroke="white" stroke-linecap="round" stroke-linejoin="round"/>
<path d="M8.15039 0.625C8.15039 0.625 10.1004 3.26899 10.1004 7.28452C10.1004 11.3001 8.15039 13.9441 8.15039 13.9441" stroke="white" stroke-linecap="round" stroke-linejoin="round"/>
<path d="M6.85039 13.9441C6.85039 13.9441 4.90039 11.3001 4.90039 7.28452C4.90039 3.26899 6.85039 0.625 6.85039 0.625" stroke="white" stroke-linecap="round" stroke-linejoin="round"/>
<path d="M1.41016 9.62891H13.5917" stroke="white" stroke-linecap="round" stroke-linejoin="round"/>
<path d="M1.41016 4.94531H13.5917" stroke="white" stroke-linecap="round" stroke-linejoin="round"/>
</svg>
