<svg width="15" height="15" viewBox="0 0 15 15" fill="none" xmlns="http://www.w3.org/2000/svg">
<path d="M1 7.5C1 11.0898 3.91015 14 7.5 14C11.0898 14 14 11.0898 14 7.5C14 3.91015 11.0898 1 7.5 1C3.91015 1 1 3.91015 1 7.5Z" stroke="#969696" stroke-linecap="round" stroke-linejoin="round"/>
<path d="M8.15039 1.03125C8.15039 1.03125 10.1004 3.59915 10.1004 7.49913C10.1004 11.3991 8.15039 13.9671 8.15039 13.9671" stroke="#969696" stroke-linecap="round" stroke-linejoin="round"/>
<path d="M6.85039 13.9671C6.85039 13.9671 4.90039 11.3991 4.90039 7.49913C4.90039 3.59915 6.85039 1.03125 6.85039 1.03125" stroke="#969696" stroke-linecap="round" stroke-linejoin="round"/>
<path d="M1.41016 9.77539H13.5917" stroke="#969696" stroke-linecap="round" stroke-linejoin="round"/>
<path d="M1.41016 5.22461H13.5917" stroke="#969696" stroke-linecap="round" stroke-linejoin="round"/>
</svg>
