<svg width="21" height="21" viewBox="0 0 21 21" fill="none" xmlns="http://www.w3.org/2000/svg">
<path d="M10.5 12.6875V14.4375M6.125 8.77519C6.53749 8.75 7.04602 8.75 7.7 8.75H13.3C13.954 8.75 14.4625 8.75 14.875 8.77519M6.125 8.77519C5.61022 8.80662 5.245 8.87727 4.93327 9.03611C4.43935 9.28778 4.03778 9.68935 3.78611 10.1833C3.5 10.7448 3.5 11.4799 3.5 12.95V14.175C3.5 15.6451 3.5 16.3802 3.78611 16.9417C4.03778 17.4356 4.43935 17.8372 4.93327 18.0889C5.49479 18.375 6.22986 18.375 7.7 18.375H13.3C14.7701 18.375 15.5052 18.375 16.0667 18.0889C16.5607 17.8372 16.9622 17.4356 17.2139 16.9417C17.5 16.3802 17.5 15.6451 17.5 14.175V12.95C17.5 11.4799 17.5 10.7448 17.2139 10.1833C16.9622 9.68935 16.5607 9.28778 16.0667 9.03611C15.755 8.87727 15.3898 8.80662 14.875 8.77519M6.125 8.77519V7C6.125 4.58375 8.08375 2.625 10.5 2.625C12.9162 2.625 14.875 4.58375 14.875 7V8.77519" stroke="#DDDDDD" stroke-width="1.5" stroke-linecap="round" stroke-linejoin="round"/>
</svg>
