<?xml version="1.0" encoding="UTF-8" standalone="no"?><!DOCTYPE svg PUBLIC "-//W3C//DTD SVG 1.1//EN" "http://www.w3.org/Graphics/SVG/1.1/DTD/svg11.dtd"><svg width="100%" height="100%" viewBox="0 0 923 108" version="1.1" xmlns="http://www.w3.org/2000/svg" xmlns:xlink="http://www.w3.org/1999/xlink" xml:space="preserve" xmlns:serif="http://www.serif.com/" style="fill-rule:evenodd;clip-rule:evenodd;stroke-linejoin:round;stroke-miterlimit:1.41421;"><path d="M498.53,53.616c12.868,0 19.037,-4.381 19.037,-14.837c0,-10.547 -6.437,-13.853 -19.394,-13.853l-10.459,0l0,28.69l10.816,0Zm-16.178,-33.159l16.89,0c14.747,0 23.775,4.825 23.775,18.322c0,13.05 -8.937,19.306 -23.415,19.306l-11.888,0l0,27.528l-5.362,0l0,-65.156Z" style="fill:#010101;fill-rule:nonzero;"/><path d="M542.416,51.739l12.425,0c11.259,0 17.519,-4.469 17.519,-13.853c0,-9.475 -6.26,-12.959 -17.519,-12.959l-12.425,0l0,26.812Zm30.656,33.872l-17.34,-29.403l-13.316,0l0,29.403l-5.363,0l0,-65.153l19.038,0c12.959,0 21.719,4.734 21.719,17.428c0,10.366 -6.347,16.356 -16.269,17.875l17.609,29.85l-6.078,0Z" style="fill:#010101;fill-rule:nonzero;"/><path d="M635.818,52.811c0,-17.697 -8.581,-28.691 -21.54,-28.691c-12.869,0 -21.36,10.994 -21.36,28.691c0,17.697 8.491,29.138 21.36,29.138c12.959,0 21.54,-11.441 21.54,-29.138m-48.531,0c0,-20.647 11.259,-33.516 26.991,-33.516c15.909,0 27.081,12.869 27.081,33.516c0,20.734 -11.172,33.963 -27.081,33.963c-15.732,0 -26.991,-13.229 -26.991,-33.963" style="fill:#010101;fill-rule:nonzero;"/><path d="M668.001,25.016l-20.465,0l0,-4.559l46.475,0l0,4.559l-20.557,0l0,60.597l-5.453,0l0,-60.597Z" style="fill:#010101;fill-rule:nonzero;"/><path d="M748.624,52.811c0,-17.697 -8.581,-28.691 -21.541,-28.691c-12.869,0 -21.362,10.994 -21.362,28.691c0,17.697 8.493,29.138 21.362,29.138c12.96,0 21.541,-11.441 21.541,-29.138m-48.531,0c0,-20.647 11.259,-33.516 26.99,-33.516c15.91,0 27.081,12.869 27.081,33.516c0,20.734 -11.171,33.963 -27.081,33.963c-15.731,0 -26.99,-13.229 -26.99,-33.963" style="fill:#010101;fill-rule:nonzero;"/><path d="M764.983,52.99c0,-20.825 11.528,-33.694 28.062,-33.694c7.688,0 13.675,3.753 17.163,7.863l-3.041,3.487c-3.484,-3.931 -8.131,-6.525 -14.122,-6.525c-13.763,0 -22.431,11.084 -22.431,28.691c0,17.784 8.49,29.137 22.165,29.137c6.613,0 11.532,-2.772 16.175,-7.865l3.041,3.396c-5.006,5.807 -11.084,9.294 -19.484,9.294c-16.088,0 -27.528,-12.959 -27.528,-33.784" style="fill:#010101;fill-rule:nonzero;"/><path d="M867.145,52.811c0,-17.697 -8.581,-28.691 -21.54,-28.691c-12.869,0 -21.363,10.994 -21.363,28.691c0,17.697 8.494,29.138 21.363,29.138c12.959,0 21.54,-11.441 21.54,-29.138m-48.531,0c0,-20.647 11.259,-33.516 26.991,-33.516c15.909,0 27.081,12.869 27.081,33.516c0,20.734 -11.172,33.963 -27.081,33.963c-15.732,0 -26.991,-13.229 -26.991,-33.963" style="fill:#010101;fill-rule:nonzero;"/><path d="M887.618,20.457l5.362,0l0,60.509l29.675,0l0,4.647l-35.037,0l0,-65.156Z" style="fill:#010101;fill-rule:nonzero;"/><path d="M169.744,38.355c0,-2.35 0.094,-4.671 0.284,-6.959c0.191,-2.284 0.891,-4.334 2.1,-6.144c1.204,-1.809 3.097,-3.253 5.669,-4.337c2.572,-1.078 6.241,-1.619 11.006,-1.619l38.116,0l0,9.531l-38.116,0c-2.415,0 -4.256,0.044 -5.525,0.141c-1.275,0.097 -2.212,0.444 -2.812,1.05c-0.606,0.603 -0.956,1.541 -1.05,2.809c-0.094,1.272 -0.144,3.082 -0.144,5.432l0,9.625l47.647,0l0,9.434l-47.647,0l0,9.625c0,2.412 0.05,4.256 0.144,5.525c0.094,1.272 0.444,2.209 1.05,2.809c0.6,0.607 1.537,0.953 2.812,1.05c1.269,0.097 3.11,0.144 5.525,0.144l38.116,0l0,9.528l-38.116,0c-2.415,0 -4.753,-0.094 -7.003,-0.287c-2.259,-0.188 -4.29,-0.888 -6.1,-2.094c-1.809,-1.206 -3.256,-3.097 -4.337,-5.669c-1.078,-2.575 -1.619,-6.244 -1.619,-11.006l0,-28.588Z" style="fill:#010101;fill-rule:nonzero;"/><path d="M300.195,19.296l9.528,0l0,19.059c0,2.413 -0.094,4.75 -0.284,7.003c-0.191,2.256 -0.891,4.288 -2.094,6.1c-1.209,1.81 -3.103,3.253 -5.672,4.335c-2.575,1.081 -6.244,1.618 -11.006,1.618l0,-0.093l-9.531,0l0,28.681l-9.528,0l0,-28.681l-9.529,0l0,0.093c-4.765,0 -8.434,-0.537 -11.006,-1.618c-2.572,-1.082 -4.465,-2.51 -5.669,-4.288c-1.209,-1.778 -1.906,-3.812 -2.1,-6.1c-0.19,-2.287 -0.284,-4.637 -0.284,-7.05l0,-19.059l9.528,0l0,19.059c0,2.413 0.097,4.256 0.291,5.528c0.19,1.269 0.6,2.206 1.234,2.81c0.635,0.606 1.591,0.953 2.86,1.046c1.271,0.097 2.984,0.144 5.146,0.144l28.588,0c2.35,0 4.175,-0.269 5.481,-0.809c1.3,-0.538 2.238,-1.238 2.806,-2.097c0.575,-0.856 0.925,-1.859 1.05,-3c0.125,-1.147 0.191,-2.35 0.191,-3.622l4.766,0c1.203,0 2.3,0.016 3.287,0.047c0.985,0.031 1.475,0.016 1.475,-0.047l-9.528,0l0,-19.059Z" style="fill:#010101;fill-rule:nonzero;"/><path d="M326.021,38.355c0,-2.35 0.094,-4.671 0.285,-6.959c0.19,-2.284 0.89,-4.334 2.1,-6.144c1.203,-1.809 3.093,-3.253 5.668,-4.337c2.569,-1.078 6.241,-1.619 11.007,-1.619l38.115,0l0,9.531l-38.115,0c-2.416,0 -4.257,0.044 -5.525,0.141c-1.275,0.097 -2.213,0.444 -2.813,1.05c-0.606,0.603 -0.956,1.541 -1.05,2.809c-0.094,1.272 -0.144,3.082 -0.144,5.432l0,9.625l47.647,0l0,9.434l-47.647,0l0,9.625c0,2.412 0.05,4.256 0.144,5.525c0.094,1.272 0.444,2.209 1.05,2.809c0.6,0.607 1.538,0.953 2.813,1.05c1.268,0.097 3.109,0.144 5.525,0.144l38.115,0l0,9.528l-38.115,0c-2.416,0 -4.754,-0.094 -7.004,-0.287c-2.259,-0.188 -4.29,-0.888 -6.1,-2.094c-1.809,-1.206 -3.256,-3.097 -4.337,-5.669c-1.078,-2.575 -1.619,-6.244 -1.619,-11.006l0,-28.588Z" style="fill:#010101;fill-rule:nonzero;"/><path d="M399.256,76.469l47.688,0c2.35,0 4.175,-0.062 5.481,-0.187c1.3,-0.128 2.253,-0.509 2.856,-1.147c0.603,-0.634 0.953,-1.587 1.047,-2.856c0.097,-1.272 0.144,-3.053 0.144,-5.338c0,-2.287 -0.047,-4.065 -0.144,-5.337c-0.094,-1.269 -0.444,-2.222 -1.047,-2.856c-0.603,-0.635 -1.556,-1.016 -2.856,-1.144c-1.306,-0.128 -3.131,-0.191 -5.481,-0.191l0,0.094l-28.585,0l0,-0.094c-2.415,0 -4.753,-0.109 -7.006,-0.334c-2.256,-0.222 -4.29,-0.922 -6.1,-2.097c-1.809,-1.175 -3.256,-3.05 -4.337,-5.622c-1.075,-2.575 -1.619,-6.241 -1.619,-11.006c0,-4.766 0.544,-8.416 1.619,-10.96c1.081,-2.537 2.528,-4.412 4.337,-5.621c1.81,-1.204 3.844,-1.919 6.1,-2.144c2.253,-0.222 4.591,-0.335 7.006,-0.335l0,0.097l25.572,0l0,-0.097l0,9.532l-25.572,0c-2.415,0 -4.259,0.047 -5.528,0.14c-1.272,0.097 -2.209,0.447 -2.812,1.05c-0.606,0.603 -0.956,1.557 -1.05,2.86c-0.091,1.3 -0.144,3.128 -0.144,5.478c0,2.415 0.053,4.256 0.144,5.528c0.094,1.269 0.444,2.206 1.05,2.809c0.603,0.607 1.54,0.953 2.812,1.05c1.269,0.094 3.113,0.141 5.528,0.141l28.585,0c4.762,0 8.434,0.541 11.006,1.622c2.569,1.081 4.463,2.525 5.672,4.334c1.203,1.813 1.903,3.86 2.094,6.147c0.19,2.288 0.284,4.606 0.284,6.956c0,2.416 -0.094,4.75 -0.284,7.003c-0.191,2.257 -0.891,4.288 -2.094,6.1c-1.209,1.81 -3.103,3.257 -5.672,4.335c-2.572,1.081 -6.244,1.619 -11.006,1.619l-47.688,0l0,-9.529Z" style="fill:#010101;fill-rule:nonzero;"/><path d="M448.997,28.72l0,-8.25l-3.082,0l0,-1.106l7.413,0l0,1.106l-3.094,0l0,8.25l-1.237,0Z" style="fill:#010101;fill-rule:nonzero;"/><path d="M454.56,28.72l0,-9.356l1.863,0l2.215,6.625c0.204,0.616 0.354,1.078 0.444,1.385c0.11,-0.338 0.275,-0.841 0.5,-1.497l2.238,-6.513l1.665,0l0,9.356l-1.19,0l0,-7.831l-2.719,7.831l-1.116,0l-2.706,-7.962l0,7.962l-1.194,0Z" style="fill:#010101;fill-rule:nonzero;"/><path d="M29.141,82l-29.141,-29.253l38.138,-37.493c0,0 9.64,-11.225 33.756,-0.294c0,0 -46.76,27.172 -42.753,67.04" style="fill:#303e66;fill-rule:nonzero;"/><path d="M122.084,24.614l29.141,29.253l-38.137,37.493c0,0 -9.641,11.225 -33.757,0.294c0,0 46.76,-27.172 42.753,-67.04" style="fill:#303e66;fill-rule:nonzero;"/><path d="M50.025,6.481c0,0 32.997,-19.403 63.262,8.935c0,0 12.081,10.937 0.775,34.234c0,0 -24.9,-43.412 -64.037,-43.169" style="fill:#5b789f;fill-rule:nonzero;"/><path d="M101.298,100.751c0,0 -32.997,19.403 -63.263,-8.934c0,0 -12.081,-10.938 -0.775,-34.235c0,0 24.9,43.413 64.038,43.169" style="fill:#5b789f;fill-rule:nonzero;"/></svg>