<svg xmlns="http://www.w3.org/2000/svg" viewBox="0 0 201.52 18.73"><defs><style>.cls-1{fill:#fff;}</style></defs><title>Asset 1</title><g id="Layer_2" data-name="Layer 2"><g id="Layer_1-2" data-name="Layer 1"><path class="cls-1" d="M103.22,2.09H107c3.29,0,5.31,1.08,5.31,4.09s-2,4.31-5.23,4.31h-2.65v6.15h-1.2Zm3.61,7.41c2.88,0,4.25-1,4.25-3.32s-1.43-3.09-4.33-3.09h-2.33V9.5Z"/><path class="cls-1" d="M123.48,16.64l-3.88-6.57h-3v6.57h-1.2V2.09h4.25c2.9,0,4.85,1.06,4.85,3.89a3.81,3.81,0,0,1-3.63,4l3.93,6.67Zm-6.85-7.56h2.77c2.52,0,3.91-1,3.91-3.1s-1.39-2.89-3.91-2.89h-2.77Z"/><path class="cls-1" d="M126.64,9.32c0-4.61,2.52-7.49,6-7.49s6.05,2.88,6.05,7.49-2.49,7.58-6.05,7.58S126.64,14,126.64,9.32Zm10.84,0c0-4-1.91-6.41-4.81-6.41s-4.77,2.45-4.77,6.41,1.9,6.5,4.77,6.5S137.48,13.27,137.48,9.32Z"/><path class="cls-1" d="M144.67,3.11H140.1v-1h10.37v1h-4.59V16.64h-1.21Z"/><path class="cls-1" d="M151.83,9.32c0-4.61,2.51-7.49,6-7.49s6,2.88,6,7.49-2.49,7.58-6,7.58S151.83,14,151.83,9.32Zm10.84,0c0-4-1.92-6.41-4.81-6.41s-4.77,2.45-4.77,6.41,1.89,6.5,4.77,6.5S162.67,13.27,162.67,9.32Z"/><path class="cls-1" d="M166.32,9.36c0-4.65,2.57-7.53,6.26-7.53a5,5,0,0,1,3.84,1.76l-.68.78a4.1,4.1,0,0,0-3.16-1.46c-3.07,0-5,2.47-5,6.41s1.9,6.5,5,6.5a4.68,4.68,0,0,0,3.62-1.75l.67.75a5.43,5.43,0,0,1-4.35,2.08C168.87,16.9,166.32,14,166.32,9.36Z"/><path class="cls-1" d="M178.29,9.32c0-4.61,2.51-7.49,6-7.49s6,2.88,6,7.49-2.49,7.58-6,7.58S178.29,14,178.29,9.32Zm10.84,0c0-4-1.92-6.41-4.81-6.41s-4.77,2.45-4.77,6.41,1.89,6.5,4.77,6.5S189.13,13.27,189.13,9.32Z"/><path class="cls-1" d="M193.69,2.09h1.2V15.6h6.63v1h-7.83Z"/><path class="cls-1" d="M31.44,6.37c0-.49,0-1,.06-1.45a2.62,2.62,0,0,1,.44-1.29,2.55,2.55,0,0,1,1.18-.91,6.11,6.11,0,0,1,2.31-.34h8v2h-8c-.51,0-.89,0-1.16,0a.89.89,0,0,0-.59.22.92.92,0,0,0-.22.59c0,.26,0,.64,0,1.13v2h10v2h-10v2c0,.5,0,.89,0,1.16a.91.91,0,0,0,.22.58.89.89,0,0,0,.59.22c.27,0,.65,0,1.16,0h8v2h-8q-.76,0-1.47-.06a2.72,2.72,0,0,1-1.28-.44,2.56,2.56,0,0,1-.9-1.19,6.06,6.06,0,0,1-.34-2.3Z"/><path class="cls-1" d="M58.75,2.38h2v4q0,.76-.06,1.47a2.72,2.72,0,0,1-.44,1.28,2.5,2.5,0,0,1-1.19.9,6.06,6.06,0,0,1-2.3.34v0h-2v6h-2v-6h-2v0a6.06,6.06,0,0,1-2.3-.34,2.55,2.55,0,0,1-1.19-.89,2.69,2.69,0,0,1-.44-1.28c0-.48-.06-1-.06-1.48v-4h2v4a8.4,8.4,0,0,0,.06,1.16,1,1,0,0,0,.26.59.91.91,0,0,0,.59.22q.41,0,1.08,0h6a3.21,3.21,0,0,0,1.15-.17,1.18,1.18,0,0,0,.58-.44,1.32,1.32,0,0,0,.22-.63,6.12,6.12,0,0,0,0-.76h1.69c.21,0,.31,0,.31,0h-2Z"/><path class="cls-1" d="M64.16,6.37c0-.49,0-1,.06-1.45a2.72,2.72,0,0,1,.44-1.29,2.58,2.58,0,0,1,1.19-.91,6.09,6.09,0,0,1,2.3-.34h8v2h-8c-.5,0-.89,0-1.15,0a.87.87,0,0,0-.59.22.87.87,0,0,0-.22.59c0,.26,0,.64,0,1.13v2h10v2h-10v2c0,.5,0,.89,0,1.16a.76.76,0,0,0,.81.8c.26,0,.65,0,1.15,0h8v2h-8c-.5,0-1,0-1.46-.06a2.69,2.69,0,0,1-1.28-.44,2.58,2.58,0,0,1-.91-1.19,6.26,6.26,0,0,1-.34-2.3Z"/><path class="cls-1" d="M79.5,14.35h10a11.37,11.37,0,0,0,1.15,0,.87.87,0,0,0,.6-.24.91.91,0,0,0,.22-.59c0-.27,0-.64,0-1.12s0-.85,0-1.12a1,1,0,0,0-.22-.6,1,1,0,0,0-.6-.24c-.27,0-.65,0-1.15,0v0h-6v0A13.93,13.93,0,0,1,82,10.29a2.72,2.72,0,0,1-1.28-.44,2.45,2.45,0,0,1-.9-1.17,6.11,6.11,0,0,1-.34-2.31,6,6,0,0,1,.34-2.29,2.58,2.58,0,0,1,.9-1.18A2.85,2.85,0,0,1,82,2.45c.47,0,1-.07,1.47-.07v0h5.35v2H83.5c-.51,0-.89,0-1.16,0a.89.89,0,0,0-.59.22.93.93,0,0,0-.22.6q0,.4,0,1.14c0,.51,0,.89,0,1.16a.94.94,0,0,0,.22.59.89.89,0,0,0,.59.22c.27,0,.65,0,1.16,0h6a6.11,6.11,0,0,1,2.31.34A2.56,2.56,0,0,1,93,9.62a2.65,2.65,0,0,1,.44,1.28c0,.48.06,1,.06,1.46s0,1-.06,1.47A2.68,2.68,0,0,1,93,15.1a2.63,2.63,0,0,1-1.19.91,6.11,6.11,0,0,1-2.31.34h-10Z"/><path class="cls-1" d="M89.91,4.36V2.63h-.64V2.4h1.55v.23h-.65V4.36Z"/><path class="cls-1" d="M91.08,4.36v-2h.39l.46,1.38c0,.13.08.23.1.29s0-.17.1-.31L92.6,2.4H93v2H92.7V2.72l-.57,1.64H91.9l-.57-1.67V4.36Z"/><path class="cls-1" d="M5.09,14.32,0,9.21,6.66,2.66s1.69-2,5.9-.05C12.56,2.61,4.39,7.36,5.09,14.32Z"/><path class="cls-1" d="M21.33,4.3l5.09,5.11L19.75,16s-1.68,2-5.89.05C13.86,16,22,11.26,21.33,4.3Z"/><path class="cls-1" d="M8.74,1.13a9.44,9.44,0,0,1,11,1.56s2.11,1.91.13,6C19.92,8.67,15.57,1.09,8.74,1.13Z"/><path class="cls-1" d="M17.69,17.6A9.44,9.44,0,0,1,6.64,16s-2.11-1.91-.13-6C6.51,10.06,10.86,17.64,17.69,17.6Z"/></g></g></svg>