<svg width="28" height="28" viewBox="0 0 28 28" fill="none" xmlns="http://www.w3.org/2000/svg">
<path d="M25.7037 1L15.5586 9.12775L17.4347 4.33249L25.7037 1Z" fill="#E2761B" stroke="#E2761B" stroke-linecap="round" stroke-linejoin="round"/>
<path d="M2.28516 1L12.3487 9.20474L10.5644 4.33249L2.28516 1Z" fill="#E4761B" stroke="#E4761B" stroke-linecap="round" stroke-linejoin="round"/>
<path d="M22.0535 19.8398L19.3516 24.3052L25.1327 26.0209L26.7947 19.9388L22.0535 19.8398Z" fill="#E4761B" stroke="#E4761B" stroke-linecap="round" stroke-linejoin="round"/>
<path d="M1.21484 19.9388L2.86661 26.0209L8.64779 24.3052L5.94583 19.8398L1.21484 19.9388Z" fill="#E4761B" stroke="#E4761B" stroke-linecap="round" stroke-linejoin="round"/>
<path d="M8.32192 12.2953L6.71094 14.9239L12.4513 15.1989L12.2474 8.54492L8.32192 12.2953Z" fill="#E4761B" stroke="#E4761B" stroke-linecap="round" stroke-linejoin="round"/>
<path d="M19.6715 12.2962L15.695 8.46875L15.5625 15.1997L21.2927 14.9248L19.6715 12.2962Z" fill="#E4761B" stroke="#E4761B" stroke-linecap="round" stroke-linejoin="round"/>
<path d="M8.64844 24.3048L12.0947 22.49L9.11746 19.9824L8.64844 24.3048Z" fill="#E4761B" stroke="#E4761B" stroke-linecap="round" stroke-linejoin="round"/>
<path d="M15.8984 22.49L19.3549 24.3048L18.8757 19.9824L15.8984 22.49Z" fill="#E4761B" stroke="#E4761B" stroke-linecap="round" stroke-linejoin="round"/>
<path d="M19.3549 24.305L15.8984 22.4902L16.1737 24.9209L16.1431 25.9437L19.3549 24.305Z" fill="#D7C1B3" stroke="#D7C1B3" stroke-linecap="round" stroke-linejoin="round"/>
<path d="M8.64844 24.305L11.8602 25.9437L11.8398 24.9209L12.0947 22.4902L8.64844 24.305Z" fill="#D7C1B3" stroke="#D7C1B3" stroke-linecap="round" stroke-linejoin="round"/>
<path d="M8.64727 24.3052L9.13668 19.8398L5.94531 19.9388L8.64727 24.3052Z" fill="#CD6116" stroke="#CD6116" stroke-linecap="round" stroke-linejoin="round"/>
<path d="M18.8633 19.8398L19.3527 24.3052L22.0547 19.9388L18.8633 19.8398Z" fill="#CD6116" stroke="#CD6116" stroke-linecap="round" stroke-linejoin="round"/>
<path d="M21.2888 14.9238L15.5586 15.1988L16.0888 18.3773L16.9351 16.4636L18.9743 17.4644L21.2888 14.9238Z" fill="#CD6116" stroke="#CD6116" stroke-linecap="round" stroke-linejoin="round"/>
<path d="M9.03564 17.4644L11.0749 16.4636L11.9109 18.3773L12.4513 15.1988L6.71094 14.9238L9.03564 17.4644Z" fill="#CD6116" stroke="#CD6116" stroke-linecap="round" stroke-linejoin="round"/>
<path d="M6.71094 14.9238L9.11721 19.983L9.03564 17.4644L6.71094 14.9238Z" fill="#E4751F" stroke="#E4751F" stroke-linecap="round" stroke-linejoin="round"/>
<path d="M18.977 17.4644L18.875 19.983L21.2915 14.9238L18.977 17.4644Z" fill="#E4751F" stroke="#E4751F" stroke-linecap="round" stroke-linejoin="round"/>
<path d="M12.4505 15.1992L11.9102 18.3777L12.5831 22.1282L12.736 17.1899L12.4505 15.1992Z" fill="#E4751F" stroke="#E4751F" stroke-linecap="round" stroke-linejoin="round"/>
<path d="M15.5605 15.1992L15.2852 17.1789L15.4075 22.1282L16.0906 18.3777L15.5605 15.1992Z" fill="#E4751F" stroke="#E4751F" stroke-linecap="round" stroke-linejoin="round"/>
<path d="M16.0894 18.3777L15.4062 22.1281L15.8957 22.4911L18.8729 19.9835L18.9749 17.4648L16.0894 18.3777Z" fill="#F6851B" stroke="#F6851B" stroke-linecap="round" stroke-linejoin="round"/>
<path d="M9.03516 17.4648L9.11673 19.9835L12.094 22.4911L12.5834 22.1281L11.9105 18.3777L9.03516 17.4648Z" fill="#F6851B" stroke="#F6851B" stroke-linecap="round" stroke-linejoin="round"/>
<path d="M16.1426 25.9434L16.1731 24.9206L15.9182 24.6786H12.0743L11.8398 24.9206L11.8602 25.9434L8.64844 24.3047L9.77001 25.2945L12.0437 26.9993H15.9488L18.2328 25.2945L19.3543 24.3047L16.1426 25.9434Z" fill="#C0AD9E" stroke="#C0AD9E" stroke-linecap="round" stroke-linejoin="round"/>
<path d="M15.8979 22.4899L15.4085 22.127H12.5842L12.0947 22.4899L11.8398 24.9205L12.0744 24.6786H15.9183L16.1732 24.9205L15.8979 22.4899Z" fill="#161616" stroke="#161616" stroke-linecap="round" stroke-linejoin="round"/>
<path d="M26.1353 9.65567L27.002 5.16836L25.7071 1L15.8984 8.85279L19.671 12.2953L25.0035 13.978L26.1863 12.4932L25.6765 12.0973L26.4922 11.2944L25.86 10.7665L26.6757 10.0956L26.1353 9.65567Z" fill="#763D16" stroke="#763D16" stroke-linecap="round" stroke-linejoin="round"/>
<path d="M1 5.16836L1.86667 9.65567L1.31608 10.0956L2.13177 10.7665L1.5098 11.2944L2.32549 12.0973L1.81569 12.4932L2.98824 13.978L8.32078 12.2953L12.0933 8.85279L2.28471 1L1 5.16836Z" fill="#763D16" stroke="#763D16" stroke-linecap="round" stroke-linejoin="round"/>
<path d="M25.0028 13.9777L19.6703 12.2949L21.2915 14.9235L18.875 19.9827L22.0562 19.9387H26.7974L25.0028 13.9777Z" fill="#F6851B" stroke="#F6851B" stroke-linecap="round" stroke-linejoin="round"/>
<path d="M8.32151 12.2949L2.98896 13.9777L1.21484 19.9387H5.94582L9.1168 19.9827L6.71053 14.9235L8.32151 12.2949Z" fill="#F6851B" stroke="#F6851B" stroke-linecap="round" stroke-linejoin="round"/>
<path d="M15.5586 15.1984L15.895 8.85233L17.4449 4.33203H10.5625L12.0919 8.85233L12.4488 15.1984L12.5711 17.2L12.5813 22.1273H15.4056L15.426 17.2L15.5586 15.1984Z" fill="#F6851B" stroke="#F6851B" stroke-linecap="round" stroke-linejoin="round"/>
<path d="M11.9105 18.3766L9.03516 17.4637L11.0642 16.4629L11.9105 18.3766Z" fill="#233447"/>
<path d="M16.0781 18.3766L16.9244 16.4629L18.9636 17.4637L16.0781 18.3766Z" fill="#233447"/>
</svg>
