<svg width="82" height="75" viewBox="0 0 82 75" fill="none" xmlns="http://www.w3.org/2000/svg">
<path d="M80.4367 -7.55349L62.9925 22.7455C60.8639 26.4428 59.7995 28.2914 59.3829 30.2563C59.0142 31.9948 59.0142 33.7913 59.3829 35.5298C59.7995 37.4946 60.8639 39.3432 62.9925 43.0406L80.4367 73.3395L50.1378 55.8953C46.4405 53.7666 44.5918 52.7023 42.627 52.2857C40.8885 51.917 39.092 51.917 37.3535 52.2857C35.3887 52.7023 33.54 53.7666 29.8427 55.8953L-0.456274 73.3395L16.9879 43.0406C19.1166 39.3432 20.1809 37.4946 20.5976 35.5298C20.9662 33.7913 20.9662 31.9948 20.5976 30.2563C20.1809 28.2914 19.1166 26.4428 16.9879 22.7455L-0.456274 -7.55349L29.8427 9.89071C33.54 12.0194 35.3887 13.0837 37.3535 13.5004C39.092 13.869 40.8885 13.869 42.627 13.5004C44.5918 13.0837 46.4405 12.0194 50.1378 9.89071L80.4367 -7.55349Z" stroke="white" stroke-opacity="0.85" stroke-width="1.7" stroke-linecap="round" stroke-linejoin="round"/>
</svg>
