<svg width="83" height="86" viewBox="0 0 83 86" fill="none" xmlns="http://www.w3.org/2000/svg">
<path d="M12.6808 1.79999V24.35M23.803 13.075H1.55859M51.6086 1.79999L61.3563 26.8551C62.4013 29.5412 62.9238 30.8842 63.7239 32.0166C64.433 33.0205 65.3001 33.8994 66.2903 34.6183C67.4074 35.4293 68.7322 35.959 71.3818 37.0184L96.0975 46.9L71.3818 56.7816C68.7322 57.8409 67.4074 58.3706 66.2903 59.1817C65.3001 59.9006 64.433 60.7795 63.7239 61.7833C62.9238 62.9158 62.4013 64.2588 61.3563 66.9448L51.6086 92L41.8609 66.9448C40.8159 64.2588 40.2934 62.9158 39.4933 61.7833C38.7841 60.7795 37.9171 59.9006 36.9269 59.1817C35.8098 58.3706 34.485 57.8409 31.8353 56.7816L7.1197 46.9L31.8353 37.0184C34.485 35.959 35.8098 35.4293 36.9269 34.6183C37.9171 33.8994 38.7841 33.0205 39.4933 32.0166C40.2934 30.8842 40.8159 29.5412 41.8609 26.8551L51.6086 1.79999Z" stroke="white" stroke-opacity="0.85" stroke-width="1.7" stroke-linecap="round" stroke-linejoin="round"/>
</svg>
