<svg width="100" height="100" viewBox="0 0 100 100" fill="none" xmlns="http://www.w3.org/2000/svg">
<rect width="100" height="100" rx="5" fill="#0F1111"/>
<path d="M44.678 58.252C41.348 58.252 39.044 55.588 39.044 51.358C39.044 47.128 41.348 44.572 44.678 44.572C47.99 44.572 50.294 47.146 50.294 51.358C50.294 55.588 47.99 58.252 44.678 58.252ZM44.678 56.866C47.036 56.866 48.602 54.742 48.602 51.358C48.602 48.064 47.036 46.03 44.678 46.03C42.302 46.03 40.754 48.064 40.754 51.358C40.754 54.742 42.302 56.866 44.678 56.866ZM48.71 61.33C46.19 61.33 44.48 59.89 43.778 57.964L45.506 57.838C46.028 59.224 47.324 59.926 48.89 59.926C49.484 59.926 49.916 59.854 50.276 59.728L50.6 61.024C50.186 61.186 49.502 61.33 48.71 61.33ZM53.1594 58V44.806H57.2814C59.9634 44.806 61.8894 45.778 61.8894 48.514C61.8894 51.16 59.9634 52.42 57.2814 52.42H54.8334V58H53.1594ZM54.8334 51.07H57.0474C59.0994 51.07 60.2334 50.224 60.2334 48.514C60.2334 46.786 59.0994 46.174 57.0474 46.174H54.8334V51.07ZM60.4134 58L56.9574 51.97L58.2534 51.106L62.2854 58H60.4134Z" fill="#A0A0A0"/>
</svg>
