<svg width="14" height="16" viewBox="0 0 14 16" fill="none" xmlns="http://www.w3.org/2000/svg">
<path d="M1 1H13M1 15H13M11.5 1V2.74005C11.5 3.47975 11.2267 4.19337 10.7326 4.74387L8.45807 7.2782C8.02186 7.76423 8.03222 8.45068 8.48296 8.92646L10.6779 11.2433C11.2058 11.8005 11.5 12.5389 11.5 13.3065V15M2.5 1V2.74005C2.5 3.47975 2.77328 4.19337 3.26735 4.74387L5.54193 7.2782C5.97814 7.76423 5.96778 8.45068 5.51704 8.92646L3.32214 11.2433C2.79423 11.8005 2.5 12.5389 2.5 13.3065V15" stroke="#9C9C9C" stroke-width="1.5" stroke-linecap="round" stroke-linejoin="round"/>
<path d="M5 13L9 13" stroke="#9C9C9C" stroke-linecap="round" stroke-linejoin="round"/>
</svg>
