<svg width="17" height="22" viewBox="0 0 17 22" fill="none" xmlns="http://www.w3.org/2000/svg">
<path d="M1 1.23438H15.824M1 20.9997H15.824M13.971 1.23438V4.27575C13.971 4.94769 13.7454 5.60018 13.3304 6.12864L10.2132 10.098C9.67432 10.7842 9.68712 11.7533 10.2439 12.425L13.2806 16.0883C13.7268 16.6265 13.971 17.3037 13.971 18.0029V20.9997M2.853 1.23438V4.27575C2.853 4.94769 3.07858 5.60018 3.49359 6.12864L6.61078 10.098C7.14965 10.7842 7.13685 11.7533 6.58004 12.425L3.54336 16.0883C3.09718 16.6265 2.853 17.3037 2.853 18.0029V20.9997" stroke="white" stroke-width="1.5" stroke-linecap="round" stroke-linejoin="round"/>
<path d="M5.94128 18.1758L10.8826 18.1758" stroke="white" stroke-width="1.5" stroke-linecap="round" stroke-linejoin="round"/>
</svg>
