<svg width="19" height="19" viewBox="0 0 19 19" fill="none" xmlns="http://www.w3.org/2000/svg">
<path d="M7.0763 2.91714L8.05021 1.44758C8.23545 1.16807 8.54846 1 8.88378 1H10.1174C10.4515 1 10.7635 1.16687 10.9491 1.44476L11.9121 2.88727M7.0763 2.91714C6.79552 3.33776 6.32879 3.54387 5.83341 3.50712M7.0763 2.91714C6.79415 3.33676 6.32879 3.54558 5.83341 3.50712M5.83341 3.50712L4.12701 3.39464C3.79673 3.37287 3.47708 3.51593 3.27328 3.77674L2.45384 4.82537C2.25223 5.08338 2.18969 5.42373 2.28643 5.73655L2.79969 7.39629M2.79969 7.39629C2.87168 7.64137 2.88089 7.90393 2.82937 8.1519M2.79969 7.39629C2.8727 7.64093 2.88157 7.90297 2.82903 8.15444M2.82937 8.1519C2.77717 8.39694 2.66527 8.62832 2.49912 8.81568M2.82937 8.1519L2.82903 8.15444M2.49912 8.81568L1.34121 10.1233C1.12708 10.3651 1.04294 10.6955 1.11528 11.0102L1.41039 12.2943C1.48486 12.6183 1.71552 12.8842 2.02582 13.0036L3.58917 13.6052C3.8198 13.6989 4.01905 13.8513 4.16984 14.0431M2.49912 8.81568C2.66629 8.62985 2.77717 8.39922 2.82903 8.15444M4.16984 14.0431C4.31962 14.2356 4.42163 14.4678 4.46121 14.7193M4.16984 14.0431C4.32098 14.2356 4.42334 14.4672 4.46121 14.7193M4.16984 14.0431L4.16746 14.0404C4.15756 14.0278 4.14699 14.0147 4.13675 14.0024M4.46121 14.7193L4.7315 16.4626C4.78167 16.7862 4.98712 17.0648 5.28149 17.2083L6.41159 17.7592C6.71275 17.906 7.06742 17.8923 7.3563 17.7226L8.80401 16.8721M8.80401 16.8721C9.0186 16.7455 9.25811 16.6821 9.49761 16.6818M8.80401 16.8721C8.88896 16.8214 8.978 16.7808 9.06944 16.7504C9.2083 16.7042 9.35295 16.6815 9.49761 16.6818M9.49761 16.6818C9.62214 16.682 9.74667 16.6993 9.86813 16.7335C9.98105 16.7652 10.0909 16.8115 10.195 16.8721M9.49761 16.6818C9.73814 16.6814 9.97901 16.7449 10.195 16.8721M10.195 16.8721L11.7146 17.7359C12.0049 17.9009 12.3585 17.9101 12.657 17.7604L13.7829 17.1958C14.0758 17.0489 14.2782 16.7678 14.3245 16.4434L14.5664 14.7513M14.5664 14.7513C14.6043 14.4984 14.7049 14.2644 14.8544 14.0703M14.5664 14.7513C14.6029 14.4978 14.7043 14.2642 14.8544 14.0703M14.8544 14.0703C15.0028 13.8781 15.1996 13.7251 15.4289 13.6304M14.8544 14.0703C15.0024 13.8774 15.1986 13.7239 15.4289 13.6304M15.4289 13.6304L17.0124 12.9788C17.3161 12.8538 17.5391 12.5876 17.609 12.2666L17.8926 10.9627C17.9601 10.6523 17.8762 10.3282 17.6663 10.0897L16.5002 8.76387M16.5002 8.76387C16.331 8.57585 16.2129 8.35127 16.1556 8.11258M16.5002 8.76387C16.4207 8.67606 16.3525 8.58006 16.2969 8.47827C16.2334 8.3627 16.186 8.23967 16.1556 8.11258M16.1556 8.11258C16.0993 7.87559 16.1027 7.62446 16.174 7.38139L16.6807 5.67619C16.7729 5.36575 16.7091 5.02985 16.5095 4.77486L15.7133 3.75814C15.5071 3.49476 15.1828 3.35195 14.8493 3.3776L13.1652 3.50712M13.1652 3.50712C12.9189 3.52539 12.6767 3.47612 12.461 3.37013M13.1652 3.50712C12.9186 3.52644 12.6767 3.47677 12.461 3.37013M12.461 3.37013C12.2441 3.26278 12.0537 3.09771 11.9121 2.88727M12.461 3.37013C12.2437 3.26318 12.053 3.09855 11.9121 2.88727M2.82903 8.15444L2.82971 8.15072M12.241 9.50902C12.241 11.0942 10.9896 12.3793 9.44609 12.3793C7.90262 12.3793 6.6512 11.0942 6.6512 9.50902C6.6512 7.92381 7.90262 6.63878 9.44609 6.63878C10.9896 6.63878 12.241 7.92381 12.241 9.50902Z" stroke="white" stroke-width="1.5"/>
</svg>
