<svg width="100" height="100" viewBox="0 0 100 100" fill="none" xmlns="http://www.w3.org/2000/svg">
<g clip-path="url(#clip0_2695_4472)">
<mask id="mask0_2695_4472" style="mask-type:luminance" maskUnits="userSpaceOnUse" x="0" y="0" width="100" height="100">
<path d="M100 0H0V100H100V0Z" fill="white"/>
</mask>
<g mask="url(#mask0_2695_4472)">
<path fill-rule="evenodd" clip-rule="evenodd" d="M50 16.8225C46.3869 16.8225 43.458 19.7514 43.458 23.3645H26.6355C26.6355 10.4607 37.0961 0 50 0C62.904 0 73.3645 10.4607 73.3645 23.3645C73.3645 36.2683 62.904 46.729 50 46.729V29.9065C53.613 29.9065 56.542 26.9776 56.542 23.3645C56.542 19.7514 53.613 16.8225 50 16.8225ZM83.1775 50C83.1775 46.3869 80.2485 43.458 76.6355 43.458V26.6355C89.5395 26.6355 100 37.0961 100 50C100 62.904 89.5395 73.3645 76.6355 73.3645C63.7315 73.3645 53.271 62.904 53.271 50H70.0935C70.0935 53.613 73.0225 56.542 76.6355 56.542C80.2485 56.542 83.1775 53.613 83.1775 50ZM23.3645 56.542C19.7514 56.542 16.8225 53.613 16.8225 50C16.8225 46.3869 19.7514 43.458 23.3645 43.458C26.9776 43.458 29.9065 46.3869 29.9065 50H46.729C46.729 37.0961 36.2683 26.6355 23.3645 26.6355C10.4607 26.6355 0 37.0961 0 50C0 62.904 10.4607 73.3645 23.3645 73.3645V56.542ZM50 83.1775C53.613 83.1775 56.542 80.2485 56.542 76.6355H73.3645C73.3645 89.5395 62.904 100 50 100C37.0961 100 26.6355 89.5395 26.6355 76.6355C26.6355 63.7315 37.0961 53.271 50 53.271V70.0935C46.3869 70.0935 43.458 73.0225 43.458 76.6355C43.458 80.2485 46.3869 83.1775 50 83.1775Z" fill="url(#paint0_linear_2695_4472)"/>
</g>
</g>
<defs>
<linearGradient id="paint0_linear_2695_4472" x1="50" y1="0" x2="50" y2="100" gradientUnits="userSpaceOnUse">
<stop stop-color="#B8DBFC"/>
<stop offset="1" stop-color="#F8FBFE"/>
</linearGradient>
<clipPath id="clip0_2695_4472">
<rect width="100" height="100" fill="white"/>
</clipPath>
</defs>
</svg>
