<svg width="20" height="20" viewBox="0 0 20 20" fill="none" xmlns="http://www.w3.org/2000/svg">
<path d="M17 1V5M15 3H19M17 15V19M15 17H19M8 3L6.53001 6.72721C6.3421 7.20367 6.24814 7.4419 6.10427 7.64278C5.97675 7.82084 5.82084 7.97675 5.64278 8.10427C5.4419 8.24814 5.20367 8.3421 4.72721 8.53001L1 10L4.72721 11.47C5.20367 11.6579 5.4419 11.7519 5.64278 11.8957C5.82084 12.0233 5.97675 12.1792 6.10427 12.3572C6.24814 12.5581 6.3421 12.7963 6.53001 13.2728L8 17L9.46999 13.2728C9.6579 12.7963 9.75186 12.5581 9.89573 12.3572C10.0233 12.1792 10.1792 12.0233 10.3572 11.8957C10.5581 11.7519 10.7963 11.6579 11.2728 11.47L15 10L11.2728 8.53001C10.7963 8.3421 10.5581 8.24814 10.3572 8.10427C10.1792 7.97675 10.0233 7.82084 9.89573 7.64278C9.75186 7.4419 9.6579 7.20367 9.46999 6.72721L8 3Z" stroke="white" stroke-width="1.5" stroke-linecap="round" stroke-linejoin="round"/>
</svg>
