<svg width="13" height="13" viewBox="0 0 13 13" fill="none" xmlns="http://www.w3.org/2000/svg">
<g id="star-exclamation">
<path id="Icon" d="M6.49882 5.3913V6.47463M6.49882 8.09963H6.50424M4.75376 4.88342L2.31393 5.14093C2.00762 5.17326 1.85447 5.18943 1.78628 5.25908C1.72706 5.31958 1.69953 5.40429 1.71189 5.48805C1.72611 5.58447 1.84051 5.68757 2.06932 5.89377L3.89182 7.5362C3.95946 7.59716 3.99328 7.62764 4.01471 7.66476C4.03366 7.6976 4.04551 7.73406 4.04948 7.77178C4.05397 7.8144 4.04452 7.85894 4.02563 7.94801L3.51658 10.348C3.45268 10.6493 3.42072 10.8 3.46589 10.8863C3.50513 10.9614 3.57719 11.0137 3.66067 11.0278C3.75677 11.0441 3.89018 10.9672 4.15699 10.8133L6.28221 9.58752C6.36109 9.54202 6.40053 9.51928 6.44245 9.51037C6.47955 9.50249 6.51788 9.50249 6.55498 9.51037C6.5969 9.51928 6.63634 9.54202 6.71522 9.58752L8.84044 10.8133C9.10725 10.9672 9.24066 11.0441 9.33676 11.0278C9.42024 11.0137 9.4923 10.9614 9.53154 10.8863C9.57671 10.8 9.54475 10.6493 9.48085 10.348L8.9718 7.94801C8.95291 7.85894 8.94346 7.8144 8.94795 7.77178C8.95192 7.73406 8.96377 7.6976 8.98272 7.66476C9.00415 7.62764 9.03797 7.59716 9.10561 7.5362L10.9281 5.89378C11.1569 5.68757 11.2713 5.58447 11.2855 5.48805C11.2979 5.40429 11.2704 5.31958 11.2111 5.25908C11.143 5.18943 10.9898 5.17326 10.6835 5.14093L8.24367 4.88342C8.15312 4.87387 8.10784 4.86909 8.06869 4.85165C8.03405 4.83622 8.00303 4.81368 7.97765 4.78551C7.94897 4.75366 7.93043 4.71208 7.89336 4.62891L6.89451 2.38807C6.76911 2.10674 6.7064 1.96608 6.6191 1.92276C6.54325 1.88512 6.45418 1.88512 6.37834 1.92276C6.29103 1.96608 6.22833 2.10674 6.10292 2.38807L5.10407 4.62891C5.067 4.71208 5.04846 4.75366 5.01978 4.78551C4.9944 4.81368 4.96338 4.83622 4.92874 4.85165C4.88959 4.86909 4.84431 4.87387 4.75376 4.88342Z" stroke="#E4666F" stroke-linecap="round" stroke-linejoin="round"/>
</g>
</svg>
