<svg width="19" height="19" viewBox="0 0 19 19" fill="none" xmlns="http://www.w3.org/2000/svg">
<path d="M9.49918 6.53103C9.49918 4.89822 10.8722 3.54002 12.505 3.56228C13.0769 3.56888 13.6346 3.74049 14.1112 4.05649C14.5878 4.37248 14.9631 4.8194 15.1918 5.34353H17.8117L15.4144 7.7408C15.2597 10.1489 14.1937 12.4077 12.4332 14.0579C10.6727 15.7081 8.34973 16.626 5.93668 16.6248C3.56168 16.6248 2.96793 15.7342 2.96793 15.7342C2.96793 15.7342 5.34293 14.8435 6.53043 13.0623C6.53043 13.0623 1.78043 10.6873 2.96793 4.15603C2.96793 4.15603 5.93668 7.12478 9.49918 7.71853V6.53103Z" fill="#999999"/>
</svg>
