<svg width="646" height="152" viewBox="0 0 646 152" fill="none" xmlns="http://www.w3.org/2000/svg">
<path d="M68.4438 70L61.144 57.2559L60.9976 56.499V70H59.4229V52.4951H60.2407L67.5405 65.2515L67.6992 65.9961V52.4951H69.2739V70H68.4438ZM74.8647 53.9966V60.5029H81.5664V62.0044H74.8647V70H73.29V52.4951H83.1411V53.9966H74.8647ZM89.8916 53.9966V70H88.3169V53.9966H84.1421V52.4951H94.0664V53.9966H89.8916ZM54.8086 95.9473C54.8086 96.5413 54.6865 97.0988 54.4424 97.6196C54.2064 98.1405 53.8849 98.5962 53.478 98.9868C53.0793 99.3774 52.6113 99.6867 52.0742 99.9146C51.5452 100.134 50.9837 100.244 50.3896 100.244H49.1323C48.5382 100.244 47.9727 100.134 47.4355 99.9146C46.9066 99.6867 46.4386 99.3774 46.0317 98.9868C45.633 98.5962 45.3115 98.1405 45.0674 97.6196C44.8314 97.0988 44.7134 96.5413 44.7134 95.9473V95.2515L46.2881 94.9951V95.9473C46.2881 96.3379 46.3654 96.7041 46.52 97.0459C46.6828 97.3796 46.8984 97.6766 47.167 97.937C47.4355 98.1893 47.7448 98.3887 48.0947 98.5352C48.4528 98.6816 48.8271 98.7549 49.2178 98.7549H50.3164C50.707 98.7549 51.0773 98.6816 51.4272 98.5352C51.7772 98.3887 52.0864 98.1893 52.355 97.937C52.6235 97.6766 52.8351 97.3796 52.9897 97.0459C53.1525 96.7041 53.2339 96.3379 53.2339 95.9473V95.4224C53.2339 94.8201 53.1159 94.3197 52.8799 93.9209C52.6439 93.5221 52.3306 93.1844 51.9399 92.9077C51.5493 92.6229 51.1058 92.3828 50.6094 92.1875C50.1211 91.9922 49.6165 91.7969 49.0957 91.6016C48.5749 91.4062 48.0662 91.1906 47.5698 90.9546C47.0815 90.7186 46.6421 90.4256 46.2515 90.0757C45.8608 89.7176 45.5475 89.2822 45.3115 88.7695C45.0755 88.2568 44.9575 87.6261 44.9575 86.8774V86.5479C44.9575 85.9538 45.0674 85.3963 45.2871 84.8755C45.515 84.3547 45.8242 83.8989 46.2148 83.5083C46.6055 83.1177 47.0612 82.8125 47.582 82.5928C48.111 82.3649 48.6725 82.251 49.2666 82.251H50.3896C50.9837 82.251 51.5412 82.3649 52.062 82.5928C52.5828 82.8125 53.0386 83.1177 53.4292 83.5083C53.8198 83.8989 54.125 84.3547 54.3447 84.8755C54.5726 85.3963 54.6865 85.9538 54.6865 86.5479V86.9995L53.1118 87.2559V86.5479C53.1118 86.1572 53.0386 85.7951 52.8921 85.4614C52.7456 85.1196 52.5462 84.8226 52.2939 84.5703C52.0417 84.318 51.7446 84.1187 51.4028 83.9722C51.0692 83.8257 50.707 83.7524 50.3164 83.7524H49.3398C48.9492 83.7524 48.583 83.8257 48.2412 83.9722C47.9076 84.1187 47.6105 84.318 47.3501 84.5703C47.0978 84.8226 46.8984 85.1196 46.752 85.4614C46.6055 85.7951 46.5322 86.1572 46.5322 86.5479V86.8774C46.5322 87.439 46.6502 87.911 46.8862 88.2935C47.1222 88.6759 47.4355 89.0055 47.8262 89.2822C48.2168 89.5508 48.6562 89.7868 49.1445 89.9902C49.641 90.1855 50.1496 90.389 50.6704 90.6006C51.1912 90.804 51.6958 91.0319 52.1841 91.2842C52.6805 91.5283 53.124 91.8335 53.5146 92.1997C53.9053 92.5578 54.2186 92.9972 54.4546 93.5181C54.6906 94.0389 54.8086 94.6737 54.8086 95.4224V95.9473ZM66.0513 96.5698C66.0513 97.0744 65.9536 97.5505 65.7583 97.998C65.5711 98.4456 65.3107 98.8363 64.9771 99.1699C64.6434 99.5036 64.2528 99.7681 63.8052 99.9634C63.3576 100.151 62.8815 100.244 62.377 100.244H61.376C60.8714 100.244 60.3953 100.151 59.9478 99.9634C59.5002 99.7681 59.1095 99.5036 58.7759 99.1699C58.4422 98.8363 58.1777 98.4456 57.9824 97.998C57.7952 97.5505 57.7017 97.0744 57.7017 96.5698V90.9302C57.7017 90.4256 57.7952 89.9495 57.9824 89.502C58.1777 89.0544 58.4422 88.6637 58.7759 88.3301C59.1095 87.9964 59.5002 87.736 59.9478 87.5488C60.3953 87.3535 60.8714 87.2559 61.376 87.2559H62.377C62.8815 87.2559 63.3576 87.3535 63.8052 87.5488C64.2528 87.736 64.6434 87.9964 64.9771 88.3301C65.3107 88.6637 65.5711 89.0544 65.7583 89.502C65.9536 89.9495 66.0513 90.4256 66.0513 90.9302V93.8721H59.2031V96.6553C59.2031 96.9564 59.2601 97.2412 59.374 97.5098C59.488 97.7702 59.6426 97.998 59.8379 98.1934C60.0332 98.3887 60.2611 98.5433 60.5215 98.6572C60.79 98.7712 61.0749 98.8281 61.376 98.8281H62.377C62.6781 98.8281 62.9588 98.7712 63.2192 98.6572C63.4878 98.5433 63.7197 98.3887 63.915 98.1934C64.1104 97.998 64.265 97.7702 64.3789 97.5098C64.4928 97.2412 64.5498 96.9564 64.5498 96.6553V95.8252L66.0513 96.0693V96.5698ZM64.5498 90.8447C64.5498 90.5436 64.4928 90.2629 64.3789 90.0024C64.265 89.7339 64.1104 89.502 63.915 89.3066C63.7197 89.1113 63.4878 88.9567 63.2192 88.8428C62.9588 88.7288 62.6781 88.6719 62.377 88.6719H61.376C61.0749 88.6719 60.79 88.7288 60.5215 88.8428C60.2611 88.9567 60.0332 89.1113 59.8379 89.3066C59.6426 89.502 59.488 89.7339 59.374 90.0024C59.2601 90.2629 59.2031 90.5436 59.2031 90.8447V92.7002H64.5498V90.8447ZM76.9033 100L76.0732 98.7549C75.7314 99.2025 75.3042 99.5646 74.7915 99.8413C74.2788 100.11 73.7173 100.244 73.1069 100.244H72.7285C72.224 100.244 71.7479 100.151 71.3003 99.9634C70.8527 99.7681 70.4621 99.5036 70.1284 99.1699C69.7948 98.8363 69.5303 98.4456 69.335 97.998C69.1478 97.5505 69.0542 97.0744 69.0542 96.5698V96.4478C69.0542 95.9432 69.1478 95.4671 69.335 95.0195C69.5303 94.5719 69.7948 94.1813 70.1284 93.8477C70.4621 93.514 70.8527 93.2536 71.3003 93.0664C71.7479 92.8711 72.224 92.7734 72.7285 92.7734H75.9023V90.8447C75.9023 90.5436 75.8454 90.2629 75.7314 90.0024C75.6175 89.7339 75.4629 89.502 75.2676 89.3066C75.0723 89.1113 74.8403 88.9567 74.5718 88.8428C74.3114 88.7288 74.0306 88.6719 73.7295 88.6719H72.8506C72.5495 88.6719 72.2646 88.7288 71.9961 88.8428C71.7357 88.9567 71.5078 89.1113 71.3125 89.3066C71.1172 89.502 70.9626 89.7339 70.8486 90.0024C70.7347 90.2629 70.6777 90.5436 70.6777 90.8447V91.2964L69.1763 91.0522V90.9302C69.1763 90.4256 69.2699 89.9495 69.457 89.502C69.6523 89.0544 69.9168 88.6637 70.2505 88.3301C70.5841 87.9964 70.9748 87.736 71.4224 87.5488C71.87 87.3535 72.346 87.2559 72.8506 87.2559H73.7295C74.234 87.2559 74.7101 87.3535 75.1577 87.5488C75.6053 87.736 75.9959 87.9964 76.3296 88.3301C76.6632 88.6637 76.9237 89.0544 77.1108 89.502C77.3062 89.9495 77.4038 90.4256 77.4038 90.9302V100H76.9033ZM75.9023 93.9453H72.7285C72.4274 93.9453 72.1426 94.0023 71.874 94.1162C71.6136 94.2301 71.3857 94.3888 71.1904 94.5923C70.9951 94.7876 70.8405 95.0195 70.7266 95.2881C70.6126 95.5485 70.5557 95.8293 70.5557 96.1304V96.6553C70.5557 96.9564 70.6126 97.2412 70.7266 97.5098C70.8405 97.7702 70.9951 97.998 71.1904 98.1934C71.3857 98.3887 71.6136 98.5433 71.874 98.6572C72.1426 98.7712 72.4274 98.8281 72.7285 98.8281H73.7295C74.0306 98.8281 74.3114 98.7712 74.5718 98.6572C74.8403 98.5433 75.0723 98.3887 75.2676 98.1934C75.4629 97.998 75.6175 97.7702 75.7314 97.5098C75.8454 97.2412 75.9023 96.9564 75.9023 96.6553V93.9453ZM84.0811 88.9282C83.7799 88.9282 83.4951 88.9852 83.2266 89.0991C82.9661 89.2131 82.7383 89.3677 82.543 89.563C82.3477 89.7583 82.193 89.9902 82.0791 90.2588C81.9652 90.5192 81.9082 90.8 81.9082 91.1011V100H80.4067V87.5H80.9072L81.7251 88.7695C82.0669 88.3057 82.4941 87.9395 83.0068 87.6709C83.5277 87.3942 84.0933 87.2559 84.7036 87.2559H85.5825V88.9282H84.0811ZM95.9341 96.5698C95.9341 97.0744 95.8364 97.5505 95.6411 97.998C95.4539 98.4456 95.1935 98.8363 94.8599 99.1699C94.5262 99.5036 94.1356 99.7681 93.688 99.9634C93.2404 100.151 92.7643 100.244 92.2598 100.244H91.2588C90.7542 100.244 90.2782 100.151 89.8306 99.9634C89.383 99.7681 88.9924 99.5036 88.6587 99.1699C88.325 98.8363 88.0605 98.4456 87.8652 97.998C87.6781 97.5505 87.5845 97.0744 87.5845 96.5698V90.9302C87.5845 90.4256 87.6781 89.9495 87.8652 89.502C88.0605 89.0544 88.325 88.6637 88.6587 88.3301C88.9924 87.9964 89.383 87.736 89.8306 87.5488C90.2782 87.3535 90.7542 87.2559 91.2588 87.2559H92.2598C92.7643 87.2559 93.2404 87.3535 93.688 87.5488C94.1356 87.736 94.5262 87.9964 94.8599 88.3301C95.1935 88.6637 95.4539 89.0544 95.6411 89.502C95.8364 89.9495 95.9341 90.4256 95.9341 90.9302V91.4307L94.4326 91.6748V90.8447C94.4326 90.5436 94.3757 90.2629 94.2617 90.0024C94.1478 89.7339 93.9932 89.502 93.7979 89.3066C93.6025 89.1113 93.3706 88.9567 93.1021 88.8428C92.8416 88.7288 92.5609 88.6719 92.2598 88.6719H91.2588C90.9577 88.6719 90.6729 88.7288 90.4043 88.8428C90.1439 88.9567 89.916 89.1113 89.7207 89.3066C89.5254 89.502 89.3708 89.7339 89.2568 90.0024C89.1429 90.2629 89.0859 90.5436 89.0859 90.8447V96.6553C89.0859 96.9564 89.1429 97.2412 89.2568 97.5098C89.3708 97.7702 89.5254 97.998 89.7207 98.1934C89.916 98.3887 90.1439 98.5433 90.4043 98.6572C90.6729 98.7712 90.9577 98.8281 91.2588 98.8281H92.2598C92.5609 98.8281 92.8416 98.7712 93.1021 98.6572C93.3706 98.5433 93.6025 98.3887 93.7979 98.1934C93.9932 97.998 94.1478 97.7702 94.2617 97.5098C94.3757 97.2412 94.4326 96.9564 94.4326 96.6553V95.8252L95.9341 96.0693V96.5698ZM105.785 100V90.8447C105.785 90.5436 105.728 90.2629 105.614 90.0024C105.5 89.7339 105.346 89.502 105.15 89.3066C104.955 89.1113 104.723 88.9567 104.455 88.8428C104.194 88.7288 103.913 88.6719 103.612 88.6719H102.611C102.31 88.6719 102.025 88.7288 101.757 88.8428C101.496 88.9567 101.269 89.1113 101.073 89.3066C100.878 89.502 100.723 89.7339 100.609 90.0024C100.495 90.2629 100.438 90.5436 100.438 90.8447V100H98.937V82.4951H100.438V88.5498C100.78 88.1429 101.191 87.8255 101.671 87.5977C102.152 87.3698 102.672 87.2559 103.234 87.2559H103.612C104.117 87.2559 104.593 87.3535 105.041 87.5488C105.488 87.736 105.879 87.9964 106.212 88.3301C106.546 88.6637 106.806 89.0544 106.994 89.502C107.189 89.9495 107.287 90.4256 107.287 90.9302V100H105.785Z" fill="#EAEAEA"/>
<circle cx="76" cy="76" r="71" stroke="url(#paint0_linear_7948_3858)" stroke-width="10"/>
<path d="M315.822 65.7031C315.822 66.2972 315.708 66.8547 315.48 67.3755C315.26 67.8963 314.955 68.3521 314.564 68.7427C314.174 69.1333 313.714 69.4425 313.185 69.6704C312.664 69.8901 312.107 70 311.513 70H305.971V52.4951H311.513C312.107 52.4951 312.664 52.609 313.185 52.8369C313.714 53.0566 314.174 53.3618 314.564 53.7524C314.955 54.1431 315.26 54.6029 315.48 55.1318C315.708 55.6527 315.822 56.2101 315.822 56.8042V65.7031ZM314.247 56.8042C314.247 56.4136 314.174 56.0514 314.027 55.7178C313.881 55.376 313.677 55.0789 313.417 54.8267C313.165 54.5662 312.868 54.3628 312.526 54.2163C312.192 54.0698 311.83 53.9966 311.439 53.9966H307.545V68.4985H311.439C311.83 68.4985 312.192 68.4253 312.526 68.2788C312.868 68.1323 313.165 67.9329 313.417 67.6807C313.677 67.4284 313.881 67.1354 314.027 66.8018C314.174 66.46 314.247 66.0938 314.247 65.7031V56.8042ZM328.59 70L321.291 57.2559L321.144 56.499V70H319.569V52.4951H320.387L327.687 65.2515L327.846 65.9961V52.4951H329.42V70H328.59ZM340.004 65.9229H334.462L333.314 70H331.679L336.806 52.4951H337.636L342.787 70H341.164L340.004 65.9229ZM334.889 64.4214H339.589L337.282 56.3525L337.233 55.7056L337.184 56.3525L334.889 64.4214ZM276.027 100V82.4951H285.878V83.9966H277.602V90.5029H284.303V92.0044H277.602V98.4985H285.878V100H276.027ZM294.862 100L292.189 95.2026L289.516 100H287.892L291.396 93.75L287.892 87.5H289.516L292.189 92.2974L294.862 87.5H296.486L292.995 93.75L296.486 100H294.862ZM303.542 100C303.086 100 302.654 99.9146 302.248 99.7437C301.849 99.5728 301.499 99.3368 301.198 99.0356C300.905 98.7345 300.669 98.3846 300.49 97.9858C300.319 97.5871 300.233 97.1598 300.233 96.7041V88.9282H297.987V87.5H300.233V84.4971L301.735 84.2529V87.5H304.909V88.9282H301.735V96.7773C301.735 97.0296 301.78 97.2656 301.869 97.4854C301.967 97.6969 302.097 97.8841 302.26 98.0469C302.423 98.2096 302.614 98.3398 302.833 98.4375C303.053 98.527 303.289 98.5718 303.542 98.5718H304.909V100H303.542ZM311.354 88.9282C311.053 88.9282 310.768 88.9852 310.5 89.0991C310.239 89.2131 310.011 89.3677 309.816 89.563C309.621 89.7583 309.466 89.9902 309.352 90.2588C309.238 90.5192 309.181 90.8 309.181 91.1011V100H307.68V87.5H308.18L308.998 88.7695C309.34 88.3057 309.767 87.9395 310.28 87.6709C310.801 87.3942 311.366 87.2559 311.977 87.2559H312.855V88.9282H311.354ZM322.707 100L321.876 98.7549C321.535 99.2025 321.107 99.5646 320.595 99.8413C320.082 100.11 319.521 100.244 318.91 100.244H318.532C318.027 100.244 317.551 100.151 317.104 99.9634C316.656 99.7681 316.265 99.5036 315.932 99.1699C315.598 98.8363 315.333 98.4456 315.138 97.998C314.951 97.5505 314.857 97.0744 314.857 96.5698V96.4478C314.857 95.9432 314.951 95.4671 315.138 95.0195C315.333 94.5719 315.598 94.1813 315.932 93.8477C316.265 93.514 316.656 93.2536 317.104 93.0664C317.551 92.8711 318.027 92.7734 318.532 92.7734H321.706V90.8447C321.706 90.5436 321.649 90.2629 321.535 90.0024C321.421 89.7339 321.266 89.502 321.071 89.3066C320.875 89.1113 320.644 88.9567 320.375 88.8428C320.115 88.7288 319.834 88.6719 319.533 88.6719H318.654C318.353 88.6719 318.068 88.7288 317.799 88.8428C317.539 88.9567 317.311 89.1113 317.116 89.3066C316.92 89.502 316.766 89.7339 316.652 90.0024C316.538 90.2629 316.481 90.5436 316.481 90.8447V91.2964L314.979 91.0522V90.9302C314.979 90.4256 315.073 89.9495 315.26 89.502C315.456 89.0544 315.72 88.6637 316.054 88.3301C316.387 87.9964 316.778 87.736 317.226 87.5488C317.673 87.3535 318.149 87.2559 318.654 87.2559H319.533C320.037 87.2559 320.513 87.3535 320.961 87.5488C321.409 87.736 321.799 87.9964 322.133 88.3301C322.466 88.6637 322.727 89.0544 322.914 89.502C323.109 89.9495 323.207 90.4256 323.207 90.9302V100H322.707ZM321.706 93.9453H318.532C318.231 93.9453 317.946 94.0023 317.677 94.1162C317.417 94.2301 317.189 94.3888 316.994 94.5923C316.798 94.7876 316.644 95.0195 316.53 95.2881C316.416 95.5485 316.359 95.8293 316.359 96.1304V96.6553C316.359 96.9564 316.416 97.2412 316.53 97.5098C316.644 97.7702 316.798 97.998 316.994 98.1934C317.189 98.3887 317.417 98.5433 317.677 98.6572C317.946 98.7712 318.231 98.8281 318.532 98.8281H319.533C319.834 98.8281 320.115 98.7712 320.375 98.6572C320.644 98.5433 320.875 98.3887 321.071 98.1934C321.266 97.998 321.421 97.7702 321.535 97.5098C321.649 97.2412 321.706 96.9564 321.706 96.6553V93.9453ZM334.56 96.5698C334.56 97.0744 334.462 97.5505 334.267 97.998C334.079 98.4456 333.819 98.8363 333.485 99.1699C333.152 99.5036 332.761 99.7681 332.313 99.9634C331.866 100.151 331.39 100.244 330.885 100.244H329.884C329.38 100.244 328.904 100.151 328.456 99.9634C328.008 99.7681 327.618 99.5036 327.284 99.1699C326.951 98.8363 326.686 98.4456 326.491 97.998C326.304 97.5505 326.21 97.0744 326.21 96.5698V90.9302C326.21 90.4256 326.304 89.9495 326.491 89.502C326.686 89.0544 326.951 88.6637 327.284 88.3301C327.618 87.9964 328.008 87.736 328.456 87.5488C328.904 87.3535 329.38 87.2559 329.884 87.2559H330.885C331.39 87.2559 331.866 87.3535 332.313 87.5488C332.761 87.736 333.152 87.9964 333.485 88.3301C333.819 88.6637 334.079 89.0544 334.267 89.502C334.462 89.9495 334.56 90.4256 334.56 90.9302V91.4307L333.058 91.6748V90.8447C333.058 90.5436 333.001 90.2629 332.887 90.0024C332.773 89.7339 332.619 89.502 332.423 89.3066C332.228 89.1113 331.996 88.9567 331.728 88.8428C331.467 88.7288 331.186 88.6719 330.885 88.6719H329.884C329.583 88.6719 329.298 88.7288 329.03 88.8428C328.769 88.9567 328.542 89.1113 328.346 89.3066C328.151 89.502 327.996 89.7339 327.882 90.0024C327.768 90.2629 327.711 90.5436 327.711 90.8447V96.6553C327.711 96.9564 327.768 97.2412 327.882 97.5098C327.996 97.7702 328.151 97.998 328.346 98.1934C328.542 98.3887 328.769 98.5433 329.03 98.6572C329.298 98.7712 329.583 98.8281 329.884 98.8281H330.885C331.186 98.8281 331.467 98.7712 331.728 98.6572C331.996 98.5433 332.228 98.3887 332.423 98.1934C332.619 97.998 332.773 97.7702 332.887 97.5098C333.001 97.2412 333.058 96.9564 333.058 96.6553V95.8252L334.56 96.0693V96.5698ZM342.116 100C341.66 100 341.229 99.9146 340.822 99.7437C340.423 99.5728 340.073 99.3368 339.772 99.0356C339.479 98.7345 339.243 98.3846 339.064 97.9858C338.893 97.5871 338.808 97.1598 338.808 96.7041V88.9282H336.562V87.5H338.808V84.4971L340.309 84.2529V87.5H343.483V88.9282H340.309V96.7773C340.309 97.0296 340.354 97.2656 340.443 97.4854C340.541 97.6969 340.671 97.8841 340.834 98.0469C340.997 98.2096 341.188 98.3398 341.408 98.4375C341.627 98.527 341.863 98.5718 342.116 98.5718H343.483V100H342.116ZM346.632 84.4971V82.4951H348.378V84.4971H346.632ZM346.754 100V87.5H348.256V100H346.754ZM360.121 96.5698C360.121 97.0744 360.023 97.5505 359.828 97.998C359.641 98.4456 359.381 98.8363 359.047 99.1699C358.713 99.5036 358.323 99.7681 357.875 99.9634C357.427 100.151 356.951 100.244 356.447 100.244H355.446C354.941 100.244 354.465 100.151 354.018 99.9634C353.57 99.7681 353.179 99.5036 352.846 99.1699C352.512 98.8363 352.248 98.4456 352.052 97.998C351.865 97.5505 351.771 97.0744 351.771 96.5698V90.9302C351.771 90.4256 351.865 89.9495 352.052 89.502C352.248 89.0544 352.512 88.6637 352.846 88.3301C353.179 87.9964 353.57 87.736 354.018 87.5488C354.465 87.3535 354.941 87.2559 355.446 87.2559H356.447C356.951 87.2559 357.427 87.3535 357.875 87.5488C358.323 87.736 358.713 87.9964 359.047 88.3301C359.381 88.6637 359.641 89.0544 359.828 89.502C360.023 89.9495 360.121 90.4256 360.121 90.9302V96.5698ZM358.62 90.8447C358.62 90.5436 358.563 90.2629 358.449 90.0024C358.335 89.7339 358.18 89.502 357.985 89.3066C357.79 89.1113 357.558 88.9567 357.289 88.8428C357.029 88.7288 356.748 88.6719 356.447 88.6719H355.446C355.145 88.6719 354.86 88.7288 354.591 88.8428C354.331 88.9567 354.103 89.1113 353.908 89.3066C353.712 89.502 353.558 89.7339 353.444 90.0024C353.33 90.2629 353.273 90.5436 353.273 90.8447V96.6553C353.273 96.9564 353.33 97.2412 353.444 97.5098C353.558 97.7702 353.712 97.998 353.908 98.1934C354.103 98.3887 354.331 98.5433 354.591 98.6572C354.86 98.7712 355.145 98.8281 355.446 98.8281H356.447C356.748 98.8281 357.029 98.7712 357.289 98.6572C357.558 98.5433 357.79 98.3887 357.985 98.1934C358.18 97.998 358.335 97.7702 358.449 97.5098C358.563 97.2412 358.62 96.9564 358.62 96.6553V90.8447ZM369.972 100V90.8447C369.972 90.5436 369.915 90.2629 369.801 90.0024C369.687 89.7339 369.533 89.502 369.337 89.3066C369.142 89.1113 368.91 88.9567 368.642 88.8428C368.381 88.7288 368.1 88.6719 367.799 88.6719H366.798C366.497 88.6719 366.212 88.7288 365.944 88.8428C365.683 88.9567 365.456 89.1113 365.26 89.3066C365.065 89.502 364.91 89.7339 364.796 90.0024C364.682 90.2629 364.625 90.5436 364.625 90.8447V100H363.124V87.5H363.625L364.442 88.7695C364.784 88.3057 365.211 87.9395 365.724 87.6709C366.245 87.3942 366.811 87.2559 367.421 87.2559H367.799C368.304 87.2559 368.78 87.3535 369.228 87.5488C369.675 87.736 370.066 87.9964 370.399 88.3301C370.733 88.6637 370.993 89.0544 371.181 89.502C371.376 89.9495 371.474 90.4256 371.474 90.9302V100H369.972Z" fill="#EAEAEA"/>
<circle cx="323" cy="76" r="71" stroke="url(#paint1_linear_7948_3858)" stroke-width="10"/>
<path d="M536.797 65.9473C536.797 66.5413 536.675 67.0988 536.431 67.6196C536.195 68.1405 535.873 68.5962 535.466 68.9868C535.068 69.3774 534.6 69.6867 534.062 69.9146C533.534 70.1343 532.972 70.2441 532.378 70.2441H531.121C530.527 70.2441 529.961 70.1343 529.424 69.9146C528.895 69.6867 528.427 69.3774 528.02 68.9868C527.621 68.5962 527.3 68.1405 527.056 67.6196C526.82 67.0988 526.702 66.5413 526.702 65.9473V65.2515L528.276 64.9951V65.9473C528.276 66.3379 528.354 66.7041 528.508 67.0459C528.671 67.3796 528.887 67.6766 529.155 67.937C529.424 68.1893 529.733 68.3887 530.083 68.5352C530.441 68.6816 530.815 68.7549 531.206 68.7549H532.305C532.695 68.7549 533.066 68.6816 533.416 68.5352C533.765 68.3887 534.075 68.1893 534.343 67.937C534.612 67.6766 534.823 67.3796 534.978 67.0459C535.141 66.7041 535.222 66.3379 535.222 65.9473V65.4224C535.222 64.8201 535.104 64.3197 534.868 63.9209C534.632 63.5221 534.319 63.1844 533.928 62.9077C533.538 62.6229 533.094 62.3828 532.598 62.1875C532.109 61.9922 531.605 61.7969 531.084 61.6016C530.563 61.4062 530.055 61.1906 529.558 60.9546C529.07 60.7186 528.63 60.4256 528.24 60.0757C527.849 59.7176 527.536 59.2822 527.3 58.7695C527.064 58.2568 526.946 57.6261 526.946 56.8774V56.5479C526.946 55.9538 527.056 55.3963 527.275 54.8755C527.503 54.3547 527.812 53.8989 528.203 53.5083C528.594 53.1177 529.049 52.8125 529.57 52.5928C530.099 52.3649 530.661 52.251 531.255 52.251H532.378C532.972 52.251 533.529 52.3649 534.05 52.5928C534.571 52.8125 535.027 53.1177 535.417 53.5083C535.808 53.8989 536.113 54.3547 536.333 54.8755C536.561 55.3963 536.675 55.9538 536.675 56.5479V56.9995L535.1 57.2559V56.5479C535.1 56.1572 535.027 55.7951 534.88 55.4614C534.734 55.1196 534.535 54.8226 534.282 54.5703C534.03 54.318 533.733 54.1187 533.391 53.9722C533.057 53.8257 532.695 53.7524 532.305 53.7524H531.328C530.938 53.7524 530.571 53.8257 530.229 53.9722C529.896 54.1187 529.599 54.318 529.338 54.5703C529.086 54.8226 528.887 55.1196 528.74 55.4614C528.594 55.7951 528.521 56.1572 528.521 56.5479V56.8774C528.521 57.439 528.639 57.911 528.875 58.2935C529.111 58.6759 529.424 59.0055 529.814 59.2822C530.205 59.5508 530.645 59.7868 531.133 59.9902C531.629 60.1855 532.138 60.389 532.659 60.6006C533.18 60.804 533.684 61.0319 534.172 61.2842C534.669 61.5283 535.112 61.8335 535.503 62.1997C535.894 62.5578 536.207 62.9972 536.443 63.5181C536.679 64.0389 536.797 64.6737 536.797 65.4224V65.9473ZM539.824 54.4971V52.4951H541.57V54.4971H539.824ZM539.946 70V57.5H541.448V70H539.946ZM558.159 70V60.8447C558.159 60.5436 558.102 60.2629 557.988 60.0024C557.874 59.7339 557.72 59.502 557.524 59.3066C557.329 59.1113 557.097 58.9567 556.829 58.8428C556.568 58.7288 556.287 58.6719 555.986 58.6719H555.242C554.941 58.6719 554.656 58.7288 554.387 58.8428C554.127 58.9567 553.895 59.1113 553.691 59.3066C553.496 59.502 553.341 59.7339 553.228 60.0024C553.114 60.2629 553.057 60.5436 553.057 60.8447V70H551.567V60.8447C551.567 60.5436 551.51 60.2629 551.396 60.0024C551.283 59.7339 551.124 59.502 550.92 59.3066C550.725 59.1113 550.493 58.9567 550.225 58.8428C549.964 58.7288 549.683 58.6719 549.382 58.6719H548.638C548.337 58.6719 548.052 58.7288 547.783 58.8428C547.523 58.9567 547.295 59.1113 547.1 59.3066C546.904 59.502 546.75 59.7339 546.636 60.0024C546.522 60.2629 546.465 60.5436 546.465 60.8447V70H544.963V57.5H545.464L546.282 58.7695C546.624 58.3057 547.051 57.9395 547.563 57.6709C548.084 57.3942 548.65 57.2559 549.26 57.2559H549.382C550.09 57.2559 550.729 57.4308 551.299 57.7808C551.868 58.1307 552.308 58.5946 552.617 59.1724C552.772 58.8875 552.963 58.6271 553.191 58.3911C553.419 58.1551 553.671 57.9557 553.948 57.793C554.224 57.6221 554.526 57.4919 554.851 57.4023C555.177 57.3047 555.514 57.2559 555.864 57.2559H555.986C556.491 57.2559 556.967 57.3535 557.415 57.5488C557.862 57.736 558.253 57.9964 558.586 58.3301C558.92 58.6637 559.181 59.0544 559.368 59.502C559.563 59.9495 559.661 60.4256 559.661 60.9302V70H558.159ZM563.042 54.4971V52.4951H564.788V54.4971H563.042ZM563.164 70V57.5H564.666V70H563.164ZM568.682 70V52.4951H570.183V70H568.682ZM581.548 70L580.718 68.7549C580.376 69.2025 579.949 69.5646 579.436 69.8413C578.923 70.1099 578.362 70.2441 577.751 70.2441H577.373C576.868 70.2441 576.392 70.1506 575.945 69.9634C575.497 69.7681 575.107 69.5036 574.773 69.1699C574.439 68.8363 574.175 68.4456 573.979 67.998C573.792 67.5505 573.699 67.0744 573.699 66.5698V66.4478C573.699 65.9432 573.792 65.4671 573.979 65.0195C574.175 64.5719 574.439 64.1813 574.773 63.8477C575.107 63.514 575.497 63.2536 575.945 63.0664C576.392 62.8711 576.868 62.7734 577.373 62.7734H580.547V60.8447C580.547 60.5436 580.49 60.2629 580.376 60.0024C580.262 59.7339 580.107 59.502 579.912 59.3066C579.717 59.1113 579.485 58.9567 579.216 58.8428C578.956 58.7288 578.675 58.6719 578.374 58.6719H577.495C577.194 58.6719 576.909 58.7288 576.641 58.8428C576.38 58.9567 576.152 59.1113 575.957 59.3066C575.762 59.502 575.607 59.7339 575.493 60.0024C575.379 60.2629 575.322 60.5436 575.322 60.8447V61.2964L573.821 61.0522V60.9302C573.821 60.4256 573.914 59.9495 574.102 59.502C574.297 59.0544 574.561 58.6637 574.895 58.3301C575.229 57.9964 575.619 57.736 576.067 57.5488C576.514 57.3535 576.991 57.2559 577.495 57.2559H578.374C578.879 57.2559 579.355 57.3535 579.802 57.5488C580.25 57.736 580.64 57.9964 580.974 58.3301C581.308 58.6637 581.568 59.0544 581.755 59.502C581.951 59.9495 582.048 60.4256 582.048 60.9302V70H581.548ZM580.547 63.9453H577.373C577.072 63.9453 576.787 64.0023 576.519 64.1162C576.258 64.2301 576.03 64.3888 575.835 64.5923C575.64 64.7876 575.485 65.0195 575.371 65.2881C575.257 65.5485 575.2 65.8293 575.2 66.1304V66.6553C575.2 66.9564 575.257 67.2412 575.371 67.5098C575.485 67.7702 575.64 67.998 575.835 68.1934C576.03 68.3887 576.258 68.5433 576.519 68.6572C576.787 68.7712 577.072 68.8281 577.373 68.8281H578.374C578.675 68.8281 578.956 68.7712 579.216 68.6572C579.485 68.5433 579.717 68.3887 579.912 68.1934C580.107 67.998 580.262 67.7702 580.376 67.5098C580.49 67.2412 580.547 66.9564 580.547 66.6553V63.9453ZM588.726 58.9282C588.424 58.9282 588.14 58.9852 587.871 59.0991C587.611 59.2131 587.383 59.3677 587.188 59.563C586.992 59.7583 586.838 59.9902 586.724 60.2588C586.61 60.5192 586.553 60.8 586.553 61.1011V70H585.051V57.5H585.552L586.37 58.7695C586.711 58.3057 587.139 57.9395 587.651 57.6709C588.172 57.3942 588.738 57.2559 589.348 57.2559H590.227V58.9282H588.726ZM592.607 54.4971V52.4951H594.353V54.4971H592.607ZM592.729 70V57.5H594.231V70H592.729ZM602.3 70C601.844 70 601.413 69.9146 601.006 69.7437C600.607 69.5728 600.257 69.3368 599.956 69.0356C599.663 68.7345 599.427 68.3846 599.248 67.9858C599.077 67.5871 598.992 67.1598 598.992 66.7041V58.9282H596.746V57.5H598.992V54.4971L600.493 54.2529V57.5H603.667V58.9282H600.493V66.7773C600.493 67.0296 600.538 67.2656 600.627 67.4854C600.725 67.6969 600.855 67.8841 601.018 68.0469C601.181 68.2096 601.372 68.3398 601.592 68.4375C601.812 68.527 602.048 68.5718 602.3 68.5718H603.667V70H602.3ZM608.464 75.0049H607.012L609.233 68.9258L605.181 57.5H606.682L609.941 66.9727L609.99 67.6196L610.039 66.9727L613.286 57.5H614.788L608.464 75.0049ZM540.398 100L539.568 98.7549C539.226 99.2025 538.799 99.5646 538.286 99.8413C537.773 100.11 537.212 100.244 536.602 100.244H536.223C535.719 100.244 535.243 100.151 534.795 99.9634C534.347 99.7681 533.957 99.5036 533.623 99.1699C533.289 98.8363 533.025 98.4456 532.83 97.998C532.642 97.5505 532.549 97.0744 532.549 96.5698V96.4478C532.549 95.9432 532.642 95.4671 532.83 95.0195C533.025 94.5719 533.289 94.1813 533.623 93.8477C533.957 93.514 534.347 93.2536 534.795 93.0664C535.243 92.8711 535.719 92.7734 536.223 92.7734H539.397V90.8447C539.397 90.5436 539.34 90.2629 539.226 90.0024C539.112 89.7339 538.958 89.502 538.762 89.3066C538.567 89.1113 538.335 88.9567 538.066 88.8428C537.806 88.7288 537.525 88.6719 537.224 88.6719H536.345C536.044 88.6719 535.759 88.7288 535.491 88.8428C535.23 88.9567 535.002 89.1113 534.807 89.3066C534.612 89.502 534.457 89.7339 534.343 90.0024C534.229 90.2629 534.172 90.5436 534.172 90.8447V91.2964L532.671 91.0522V90.9302C532.671 90.4256 532.764 89.9495 532.952 89.502C533.147 89.0544 533.411 88.6637 533.745 88.3301C534.079 87.9964 534.469 87.736 534.917 87.5488C535.365 87.3535 535.841 87.2559 536.345 87.2559H537.224C537.729 87.2559 538.205 87.3535 538.652 87.5488C539.1 87.736 539.491 87.9964 539.824 88.3301C540.158 88.6637 540.418 89.0544 540.605 89.502C540.801 89.9495 540.898 90.4256 540.898 90.9302V100H540.398ZM539.397 93.9453H536.223C535.922 93.9453 535.637 94.0023 535.369 94.1162C535.108 94.2301 534.88 94.3888 534.685 94.5923C534.49 94.7876 534.335 95.0195 534.221 95.2881C534.107 95.5485 534.05 95.8293 534.05 96.1304V96.6553C534.05 96.9564 534.107 97.2412 534.221 97.5098C534.335 97.7702 534.49 97.998 534.685 98.1934C534.88 98.3887 535.108 98.5433 535.369 98.6572C535.637 98.7712 535.922 98.8281 536.223 98.8281H537.224C537.525 98.8281 537.806 98.7712 538.066 98.6572C538.335 98.5433 538.567 98.3887 538.762 98.1934C538.958 97.998 539.112 97.7702 539.226 97.5098C539.34 97.2412 539.397 96.9564 539.397 96.6553V93.9453ZM550.75 100V90.8447C550.75 90.5436 550.693 90.2629 550.579 90.0024C550.465 89.7339 550.31 89.502 550.115 89.3066C549.919 89.1113 549.688 88.9567 549.419 88.8428C549.159 88.7288 548.878 88.6719 548.577 88.6719H547.576C547.275 88.6719 546.99 88.7288 546.721 88.8428C546.461 88.9567 546.233 89.1113 546.038 89.3066C545.842 89.502 545.688 89.7339 545.574 90.0024C545.46 90.2629 545.403 90.5436 545.403 90.8447V100H543.901V87.5H544.402L545.22 88.7695C545.562 88.3057 545.989 87.9395 546.501 87.6709C547.022 87.3942 547.588 87.2559 548.198 87.2559H548.577C549.081 87.2559 549.557 87.3535 550.005 87.5488C550.452 87.736 550.843 87.9964 551.177 88.3301C551.51 88.6637 551.771 89.0544 551.958 89.502C552.153 89.9495 552.251 90.4256 552.251 90.9302V100H550.75ZM563.103 100L562.273 98.7549C561.931 99.2025 561.504 99.5646 560.991 99.8413C560.479 100.11 559.917 100.244 559.307 100.244H558.928C558.424 100.244 557.948 100.151 557.5 99.9634C557.052 99.7681 556.662 99.5036 556.328 99.1699C555.994 98.8363 555.73 98.4456 555.535 97.998C555.347 97.5505 555.254 97.0744 555.254 96.5698V96.4478C555.254 95.9432 555.347 95.4671 555.535 95.0195C555.73 94.5719 555.994 94.1813 556.328 93.8477C556.662 93.514 557.052 93.2536 557.5 93.0664C557.948 92.8711 558.424 92.7734 558.928 92.7734H562.102V90.8447C562.102 90.5436 562.045 90.2629 561.931 90.0024C561.817 89.7339 561.663 89.502 561.467 89.3066C561.272 89.1113 561.04 88.9567 560.771 88.8428C560.511 88.7288 560.23 88.6719 559.929 88.6719H559.05C558.749 88.6719 558.464 88.7288 558.196 88.8428C557.935 88.9567 557.708 89.1113 557.512 89.3066C557.317 89.502 557.162 89.7339 557.048 90.0024C556.934 90.2629 556.877 90.5436 556.877 90.8447V91.2964L555.376 91.0522V90.9302C555.376 90.4256 555.47 89.9495 555.657 89.502C555.852 89.0544 556.117 88.6637 556.45 88.3301C556.784 87.9964 557.174 87.736 557.622 87.5488C558.07 87.3535 558.546 87.2559 559.05 87.2559H559.929C560.434 87.2559 560.91 87.3535 561.357 87.5488C561.805 87.736 562.196 87.9964 562.529 88.3301C562.863 88.6637 563.123 89.0544 563.311 89.502C563.506 89.9495 563.604 90.4256 563.604 90.9302V100H563.103ZM562.102 93.9453H558.928C558.627 93.9453 558.342 94.0023 558.074 94.1162C557.813 94.2301 557.585 94.3888 557.39 94.5923C557.195 94.7876 557.04 95.0195 556.926 95.2881C556.812 95.5485 556.755 95.8293 556.755 96.1304V96.6553C556.755 96.9564 556.812 97.2412 556.926 97.5098C557.04 97.7702 557.195 97.998 557.39 98.1934C557.585 98.3887 557.813 98.5433 558.074 98.6572C558.342 98.7712 558.627 98.8281 558.928 98.8281H559.929C560.23 98.8281 560.511 98.7712 560.771 98.6572C561.04 98.5433 561.272 98.3887 561.467 98.1934C561.663 97.998 561.817 97.7702 561.931 97.5098C562.045 97.2412 562.102 96.9564 562.102 96.6553V93.9453ZM567.107 100V82.4951H568.608V100H567.107ZM574.15 105.005H572.698L574.919 98.9258L570.867 87.5H572.368L575.627 96.9727L575.676 97.6196L575.725 96.9727L578.972 87.5H580.474L574.15 105.005ZM590.581 96.8262C590.581 97.3307 590.479 97.7946 590.276 98.2178C590.072 98.6328 589.796 98.9909 589.446 99.292C589.096 99.5931 588.689 99.8291 588.225 100C587.769 100.163 587.289 100.244 586.785 100.244H585.784C585.279 100.244 584.795 100.151 584.331 99.9634C583.875 99.7681 583.472 99.5036 583.123 99.1699C582.781 98.8363 582.504 98.4456 582.292 97.998C582.089 97.5505 581.987 97.0744 581.987 96.5698V96.0693L583.489 95.8252V96.6553C583.489 96.9564 583.55 97.2412 583.672 97.5098C583.802 97.7702 583.973 97.998 584.185 98.1934C584.396 98.3887 584.64 98.5433 584.917 98.6572C585.194 98.7712 585.483 98.8281 585.784 98.8281H586.785C587.086 98.8281 587.375 98.7834 587.651 98.6938C587.928 98.6043 588.172 98.4782 588.384 98.3154C588.604 98.1445 588.774 97.9411 588.896 97.7051C589.027 97.4691 589.092 97.2005 589.092 96.8994C589.092 96.4518 588.994 96.0856 588.799 95.8008C588.604 95.516 588.343 95.2799 588.018 95.0928C587.7 94.8975 587.334 94.7388 586.919 94.6167C586.512 94.4865 586.093 94.3604 585.662 94.2383C585.23 94.1081 584.807 93.9616 584.392 93.7988C583.985 93.6361 583.619 93.4245 583.293 93.1641C582.976 92.8955 582.72 92.5618 582.524 92.1631C582.329 91.7643 582.231 91.2679 582.231 90.6738C582.231 90.1693 582.329 89.7095 582.524 89.2944C582.72 88.8713 582.984 88.5091 583.318 88.208C583.652 87.9069 584.038 87.675 584.478 87.5122C584.925 87.3413 585.401 87.2559 585.906 87.2559H586.785C587.289 87.2559 587.765 87.3535 588.213 87.5488C588.66 87.736 589.051 87.9964 589.385 88.3301C589.718 88.6637 589.979 89.0544 590.166 89.502C590.361 89.9495 590.459 90.4256 590.459 90.9302V90.979L588.958 91.2231V90.8447C588.958 90.5436 588.901 90.2629 588.787 90.0024C588.673 89.7339 588.518 89.502 588.323 89.3066C588.127 89.1113 587.896 88.9567 587.627 88.8428C587.367 88.7288 587.086 88.6719 586.785 88.6719H585.906C585.605 88.6719 585.32 88.7166 585.051 88.8062C584.791 88.8957 584.563 89.0259 584.368 89.1968C584.172 89.3595 584.018 89.5589 583.904 89.7949C583.79 90.0309 583.733 90.2995 583.733 90.6006C583.733 91.0319 583.831 91.3859 584.026 91.6626C584.221 91.9312 584.478 92.159 584.795 92.3462C585.12 92.5334 585.487 92.6921 585.894 92.8223C586.309 92.9443 586.728 93.0745 587.151 93.2129C587.582 93.3431 588.001 93.4937 588.408 93.6646C588.823 93.8354 589.189 94.0552 589.507 94.3237C589.832 94.5923 590.093 94.93 590.288 95.3369C590.483 95.7357 590.581 96.2321 590.581 96.8262ZM593.84 84.4971V82.4951H595.586V84.4971H593.84ZM593.962 100V87.5H595.464V100H593.962ZM607.573 96.8262C607.573 97.3307 607.472 97.7946 607.268 98.2178C607.065 98.6328 606.788 98.9909 606.438 99.292C606.088 99.5931 605.681 99.8291 605.217 100C604.762 100.163 604.281 100.244 603.777 100.244H602.776C602.271 100.244 601.787 100.151 601.323 99.9634C600.868 99.7681 600.465 99.5036 600.115 99.1699C599.773 98.8363 599.496 98.4456 599.285 97.998C599.081 97.5505 598.979 97.0744 598.979 96.5698V96.0693L600.481 95.8252V96.6553C600.481 96.9564 600.542 97.2412 600.664 97.5098C600.794 97.7702 600.965 97.998 601.177 98.1934C601.388 98.3887 601.632 98.5433 601.909 98.6572C602.186 98.7712 602.475 98.8281 602.776 98.8281H603.777C604.078 98.8281 604.367 98.7834 604.644 98.6938C604.92 98.6043 605.164 98.4782 605.376 98.3154C605.596 98.1445 605.767 97.9411 605.889 97.7051C606.019 97.4691 606.084 97.2005 606.084 96.8994C606.084 96.4518 605.986 96.0856 605.791 95.8008C605.596 95.516 605.335 95.2799 605.01 95.0928C604.692 94.8975 604.326 94.7388 603.911 94.6167C603.504 94.4865 603.085 94.3604 602.654 94.2383C602.222 94.1081 601.799 93.9616 601.384 93.7988C600.977 93.6361 600.611 93.4245 600.286 93.1641C599.968 92.8955 599.712 92.5618 599.517 92.1631C599.321 91.7643 599.224 91.2679 599.224 90.6738C599.224 90.1693 599.321 89.7095 599.517 89.2944C599.712 88.8713 599.976 88.5091 600.31 88.208C600.644 87.9069 601.03 87.675 601.47 87.5122C601.917 87.3413 602.393 87.2559 602.898 87.2559H603.777C604.281 87.2559 604.757 87.3535 605.205 87.5488C605.653 87.736 606.043 87.9964 606.377 88.3301C606.711 88.6637 606.971 89.0544 607.158 89.502C607.354 89.9495 607.451 90.4256 607.451 90.9302V90.979L605.95 91.2231V90.8447C605.95 90.5436 605.893 90.2629 605.779 90.0024C605.665 89.7339 605.51 89.502 605.315 89.3066C605.12 89.1113 604.888 88.9567 604.619 88.8428C604.359 88.7288 604.078 88.6719 603.777 88.6719H602.898C602.597 88.6719 602.312 88.7166 602.043 88.8062C601.783 88.8957 601.555 89.0259 601.36 89.1968C601.165 89.3595 601.01 89.5589 600.896 89.7949C600.782 90.0309 600.725 90.2995 600.725 90.6006C600.725 91.0319 600.823 91.3859 601.018 91.6626C601.213 91.9312 601.47 92.159 601.787 92.3462C602.113 92.5334 602.479 92.6921 602.886 92.8223C603.301 92.9443 603.72 93.0745 604.143 93.2129C604.574 93.3431 604.993 93.4937 605.4 93.6646C605.815 93.8354 606.182 94.0552 606.499 94.3237C606.825 94.5923 607.085 94.93 607.28 95.3369C607.476 95.7357 607.573 96.2321 607.573 96.8262Z" fill="#EAEAEA"/>
<circle cx="570" cy="76" r="71" stroke="url(#paint2_linear_7948_3858)" stroke-width="10"/>
<path d="M205 70L172 89.0526L172 50.9474L205 70Z" fill="#6D458B"/>
<path d="M227 70L194 89.0526L194 50.9474L227 70Z" fill="#6D458B" fill-opacity="0.66"/>
<path d="M452 70L419 89.0526L419 50.9474L452 70Z" fill="#6D458B"/>
<path d="M474 70L441 89.0526L441 50.9474L474 70Z" fill="#6D458B" fill-opacity="0.66"/>
<defs>
<linearGradient id="paint0_linear_7948_3858" x1="76" y1="0" x2="76" y2="152" gradientUnits="userSpaceOnUse">
<stop stop-color="#6D468B"/>
<stop offset="1" stop-color="#6D468B" stop-opacity="0.41"/>
</linearGradient>
<linearGradient id="paint1_linear_7948_3858" x1="323" y1="0" x2="323" y2="152" gradientUnits="userSpaceOnUse">
<stop stop-color="#6D468B"/>
<stop offset="1" stop-color="#6D468B" stop-opacity="0.41"/>
</linearGradient>
<linearGradient id="paint2_linear_7948_3858" x1="570" y1="0" x2="570" y2="152" gradientUnits="userSpaceOnUse">
<stop stop-color="#6D468B"/>
<stop offset="1" stop-color="#6D468B" stop-opacity="0.41"/>
</linearGradient>
</defs>
</svg>
