<svg width="46" height="46" viewBox="0 0 46 46" fill="none" xmlns="http://www.w3.org/2000/svg">
<g style="mix-blend-mode:luminosity">
<rect width="46" height="46" rx="10" fill="#2D2D2D"/>
<g clip-path="url(#clip0_7948_4287)">
<path d="M23.0321 28.974C22.9348 29.0071 22.8793 28.9224 22.8132 28.8835C19.57 26.9694 16.3304 25.054 13.0944 23.1372C13.063 23.1214 13.0305 23.1081 12.9971 23.0974V23.0545L13.0545 23.0215C13.136 23.0001 13.2162 22.9741 13.2948 22.9436L20.9373 19.4663C21.6184 19.1559 22.2995 18.8504 22.9805 18.543H23.0292C23.0292 18.6403 23.0292 18.7269 23.0292 18.8193C23.0318 22.2045 23.0327 25.5894 23.0321 28.974Z" fill="#574F4F"/>
<path d="M23.0369 18.5473H22.9883C22.9883 18.45 22.998 18.3527 22.998 18.2505C22.998 14.4482 22.998 10.6456 22.998 6.84267C22.9868 6.74499 22.9934 6.6461 23.0175 6.55078H23.0379C23.4378 7.14136 23.7861 7.76405 24.1539 8.37409C27.0675 13.2071 29.9796 18.0394 32.89 22.8711C32.9182 22.9188 32.9406 22.9684 32.9659 23.0209C32.8835 23.0033 32.8025 22.9796 32.7236 22.9499C32.1895 22.7086 31.6534 22.4634 31.1241 22.2173C30.2952 21.8378 29.4659 21.459 28.6363 21.0808L24.6394 19.2702C24.1072 19.025 23.5721 18.7866 23.0369 18.5473Z" fill="#4B4343"/>
<path d="M23.0207 6.54673C22.9966 6.64205 22.99 6.74094 23.0012 6.83862C23.0012 10.6409 23.0012 14.4435 23.0012 18.2465C23.0012 18.3438 22.9954 18.4411 22.9915 18.5432C22.3104 18.8507 21.6294 19.1562 20.9483 19.4666L13.3058 22.9439C13.2272 22.9743 13.1469 23.0003 13.0654 23.0217C13.2863 22.5625 13.5733 22.1461 13.835 21.7063C16.8674 16.6658 19.902 11.6262 22.9389 6.5876C22.959 6.55968 22.9808 6.53304 23.0041 6.50781L23.0207 6.54673Z" fill="#8C8C8C"/>
<path d="M23.0371 18.5469C23.5722 18.7862 24.1073 19.0246 24.6415 19.2659L28.6384 21.0766C29.4686 21.4541 30.2979 21.8329 31.1262 22.213C31.6594 22.4572 32.1965 22.7043 32.7257 22.9456C32.8046 22.9753 32.8856 22.999 32.968 23.0166C33.0653 23.1382 32.9213 23.1431 32.8775 23.1694C32.0476 23.6656 31.2138 24.155 30.3819 24.6473C27.9943 26.06 25.6073 27.4724 23.221 28.8845C23.1607 28.9195 23.0955 28.9458 23.0322 28.976C23.0322 25.592 23.0322 22.2078 23.0322 18.8232C23.0332 18.7308 23.0361 18.6393 23.0371 18.5469Z" fill="#352D2D"/>
<path d="M22.9979 30.8982L29.2491 27.2136C30.4426 26.5092 31.6355 25.8041 32.8277 25.0984L32.9356 25.0391C32.9463 25.1364 32.8792 25.1879 32.8384 25.2444C30.1141 29.0849 27.3898 32.9242 24.6656 36.7622C24.1499 37.4899 23.6352 38.2216 23.1147 38.9435C23.0874 38.9815 23.0456 39.1595 22.9619 38.9708C23.0281 38.9143 22.9989 38.8384 22.9989 38.7762C22.9995 36.1492 22.9992 33.5232 22.9979 30.8982Z" fill="#4B4343"/>
<path d="M22.9974 30.8987C22.9974 33.5237 22.9974 36.1481 22.9974 38.7718C22.9974 38.8389 23.0266 38.9148 22.9604 38.9664C22.8213 38.8827 22.7609 38.7329 22.6685 38.6093C19.5097 34.1597 16.3524 29.7094 13.1968 25.2585C13.1569 25.202 13.12 25.1417 13.0791 25.0794C13.1608 25.0318 13.2046 25.097 13.2523 25.1252C16.4468 27.0114 19.6407 28.8993 22.8339 30.7887C22.8933 30.8257 22.9439 30.8636 22.9974 30.8987Z" fill="#8C8C8C"/>
<path d="M23.0214 6.54521L22.998 6.50921C23.0409 6.48197 23.035 6.52186 23.0418 6.54229L23.0214 6.54521Z" fill="#393939"/>
</g>
</g>
<defs>
<clipPath id="clip0_7948_4287">
<rect width="20" height="32.5559" fill="white" transform="translate(13 6.5)"/>
</clipPath>
</defs>
</svg>
