<svg width="165" height="64" viewBox="0 0 165 64" fill="none" xmlns="http://www.w3.org/2000/svg">
<path d="M56.14 14.605H60.865V43H56.005L49.93 24.19V43H45.16V14.605H50.155L56.14 33.145V14.605ZM79.013 18.565H70.463V27.205H77.438V30.985H70.463V43H65.243V14.605H79.013V18.565ZM94.7757 14.605V18.565H89.7807V43H84.6057V18.565H79.6557V14.605H94.7757Z" fill="url(#paint0_linear_8034_4063)"/>
<path d="M102.367 39.04H111.007V43H97.1473V14.605H110.647V18.565H102.367V26.44H109.342V30.445H102.367V39.04ZM123.743 43H118.568V34L111.953 14.605H117.218L121.088 29.185L124.733 14.605H129.998L123.743 33.865V43ZM137.524 39.04H146.164V43H132.304V14.605H145.804V18.565H137.524V26.44H144.499V30.445H137.524V39.04ZM158.135 37.825V31.75C158.135 31.27 158.045 30.955 157.865 30.805C157.685 30.625 157.355 30.535 156.875 30.535H153.23C150.14 30.535 148.595 29.035 148.595 26.035V19.06C148.595 16.09 150.215 14.605 153.455 14.605H158.405C161.645 14.605 163.265 16.09 163.265 19.06V23.02H158.045V19.78C158.045 19.3 157.955 18.985 157.775 18.835C157.595 18.655 157.265 18.565 156.785 18.565H155.075C154.565 18.565 154.22 18.655 154.04 18.835C153.86 18.985 153.77 19.3 153.77 19.78V25.495C153.77 25.975 153.86 26.305 154.04 26.485C154.22 26.635 154.565 26.71 155.075 26.71H158.63C161.78 26.71 163.355 28.18 163.355 31.12V38.545C163.355 41.515 161.72 43 158.45 43H153.59C150.32 43 148.685 41.515 148.685 38.545V34.63H153.86V37.825C153.86 38.305 153.95 38.635 154.13 38.815C154.31 38.965 154.655 39.04 155.165 39.04H156.875C157.355 39.04 157.685 38.965 157.865 38.815C158.045 38.635 158.135 38.305 158.135 37.825Z" fill="url(#paint1_linear_8034_4063)"/>
<g clip-path="url(#clip0_8034_4063)">
<path d="M7.27527 34.8473L0 27.6874L9.5151 18.5045C9.5151 18.5045 11.9217 15.7561 17.9408 18.4336C17.9408 18.4336 6.26929 25.0863 7.26971 34.8527L7.27527 34.8473Z" fill="#5C3AE5"/>
<path d="M30.4685 20.7969L37.7382 27.9622L28.2231 37.1451C28.2231 37.1451 25.8166 39.8934 19.7974 37.216C19.7974 37.216 31.4689 30.5633 30.4685 20.8023V20.7969Z" fill="#5C3AE5"/>
<path d="M12.4829 16.3561C12.4829 16.3561 20.7197 11.6065 28.2729 18.5428C28.2729 18.5428 31.2908 21.2202 28.4674 26.9241C28.4674 26.9241 22.2537 16.2961 12.4829 16.3561Z" fill="#7864F6"/>
<path d="M25.2826 39.4391C25.2826 39.4391 17.0458 44.1887 9.49265 37.2524C9.49265 37.2524 6.47472 34.575 9.29812 28.8711C9.29812 28.8711 15.5118 39.4991 25.277 39.4445L25.2826 39.4391Z" fill="#7864F6"/>
</g>
<defs>
<linearGradient id="paint0_linear_8034_4063" x1="104" y1="0" x2="104" y2="64" gradientUnits="userSpaceOnUse">
<stop stop-color="white"/>
<stop offset="0.0001" stop-color="white" stop-opacity="0.988001"/>
<stop offset="1" stop-color="white" stop-opacity="0.2"/>
</linearGradient>
<linearGradient id="paint1_linear_8034_4063" x1="104" y1="0" x2="104" y2="64" gradientUnits="userSpaceOnUse">
<stop stop-color="#715AFF"/>
<stop offset="1" stop-color="#B2A5FF"/>
</linearGradient>
<clipPath id="clip0_8034_4063">
<rect width="37.7436" height="26.2564" fill="white" transform="translate(0 14.7695)"/>
</clipPath>
</defs>
</svg>
