<svg width="46" height="46" viewBox="0 0 46 46" fill="none" xmlns="http://www.w3.org/2000/svg">
<g style="mix-blend-mode:luminosity">
<rect width="46" height="46" rx="10" fill="#2D2D2D"/>
<path d="M15.2853 28.46C15.3385 28.4065 15.4121 28.375 15.4905 28.375H34.5501L30.9095 32.0332C30.8563 32.0866 30.7827 32.1181 30.7042 32.1181H11.6446L15.2853 28.46Z" fill="#716E7F" stroke="#716E7F"/>
<path d="M11.6446 17.8095L15.2809 14.1558C15.3456 14.0947 15.4229 14.0664 15.4905 14.0664H34.5501L30.9095 17.7246C30.8563 17.778 30.7827 17.8095 30.7042 17.8095H11.6446Z" fill="#716E7F" stroke="#716E7F"/>
<path d="M30.7042 21.1758C30.7827 21.1758 30.8563 21.2073 30.9095 21.2608L34.5501 24.9189H15.4905C15.4121 24.9189 15.3385 24.8874 15.2853 24.8339L11.6446 21.1758H30.7042Z" fill="#716E7F" stroke="#716E7F"/>
</g>
</svg>
