<svg width="46" height="46" viewBox="0 0 46 46" fill="none" xmlns="http://www.w3.org/2000/svg">
<rect width="46" height="46" rx="10" fill="#8247E5"/>
<g clip-path="url(#clip0_7948_4298)">
<path d="M30.6822 17.6889C30.1235 17.3697 29.4053 17.3697 28.7668 17.6889L24.2976 20.3225L21.2649 21.9985L16.8755 24.6321C16.3169 24.9513 15.5986 24.9513 14.9602 24.6321L11.5284 22.5571C10.9698 22.2379 10.5708 21.5994 10.5708 20.8812V16.8908C10.5708 16.2524 10.89 15.6139 11.5284 15.2149L14.9602 13.2197C15.5188 12.9005 16.2371 12.9005 16.8755 13.2197L20.3072 15.2947C20.8659 15.6139 21.2649 16.2524 21.2649 16.9706V19.6043L24.2976 17.8485V15.1351C24.2976 14.4966 23.9784 13.8581 23.3399 13.4591L16.9553 9.70817C16.3967 9.38894 15.6784 9.38894 15.04 9.70817L8.49577 13.5389C7.85731 13.8581 7.53809 14.4966 7.53809 15.1351V22.6369C7.53809 23.2754 7.85731 23.9139 8.49577 24.3129L14.9602 28.0638C15.5188 28.3831 16.2371 28.3831 16.8755 28.0638L21.2649 25.51L24.2976 23.7542L28.687 21.2004C29.2456 20.8812 29.9639 20.8812 30.6024 21.2004L34.0341 23.1956C34.5927 23.5148 34.9918 24.1533 34.9918 24.8715V28.8619C34.9918 29.5004 34.6725 30.1388 34.0341 30.5378L30.6822 32.533C30.1235 32.8523 29.4053 32.8523 28.7668 32.533L25.3351 30.5378C24.7764 30.2186 24.3774 29.5802 24.3774 28.8619V26.3081L21.3447 28.0638V30.6975C21.3447 31.3359 21.664 31.9744 22.3024 32.3734L28.7668 36.1243C29.3255 36.4436 30.0437 36.4436 30.6822 36.1243L37.1466 32.3734C37.7052 32.0542 38.1042 31.4157 38.1042 30.6975V23.1158C38.1042 22.4773 37.785 21.8389 37.1466 21.4398L30.6822 17.6889Z" fill="white"/>
</g>
<defs>
<clipPath id="clip0_7948_4298">
<rect width="30.646" height="26.7354" fill="white" transform="translate(7.53613 9.54688)"/>
</clipPath>
</defs>
</svg>
