<svg width="102" height="39" viewBox="0 0 102 39" fill="none" xmlns="http://www.w3.org/2000/svg">
<path d="M34.8831 8.75396H37.7529V26H34.8011L31.1114 14.5755V26H28.2142V8.75396H31.248L34.8831 20.0144V8.75396ZM48.7753 11.1591H43.5823V16.4067H47.8187V18.7025H43.5823V26H40.4119V8.75396H48.7753V11.1591ZM58.3489 8.75396V11.1591H55.3151V26H52.172V11.1591H49.1656V8.75396H58.3489Z" fill="url(#paint0_linear_8034_4137)"/>
<path d="M62.9598 23.5948H68.2074V26H59.7894V8.75396H67.9887V11.1591H62.9598V15.9421H67.1961V18.3746H62.9598V23.5948ZM75.9428 26H72.7997V20.5337L68.782 8.75396H71.9798L74.3302 17.6093L76.5441 8.75396H79.7418L75.9428 20.4517V26ZM84.3124 23.5948H89.56V26H81.1419V8.75396H89.3413V11.1591H84.3124V15.9421H88.5487V18.3746H84.3124V23.5948ZM96.8307 22.8569V19.1672C96.8307 18.8756 96.7761 18.6843 96.6667 18.5932C96.5574 18.4839 96.357 18.4292 96.0655 18.4292H93.8516C91.9749 18.4292 91.0365 17.5182 91.0365 15.6961V11.4598C91.0365 9.65589 92.0204 8.75396 93.9883 8.75396H96.9947C98.9626 8.75396 99.9465 9.65589 99.9465 11.4598V13.8649H96.7761V11.8971C96.7761 11.6055 96.7214 11.4142 96.6121 11.3231C96.5028 11.2138 96.3023 11.1591 96.0108 11.1591H94.9722C94.6624 11.1591 94.4529 11.2138 94.3436 11.3231C94.2343 11.4142 94.1796 11.6055 94.1796 11.8971V15.3681C94.1796 15.6597 94.2343 15.8601 94.3436 15.9694C94.4529 16.0605 94.6624 16.1061 94.9722 16.1061H97.1314C99.0446 16.1061 100.001 16.9989 100.001 18.7845V23.2942C100.001 25.0981 99.0081 26 97.022 26H94.0703C92.0842 26 91.0912 25.0981 91.0912 23.2942V20.9164H94.2343V22.8569C94.2343 23.1484 94.2889 23.3489 94.3982 23.4582C94.5076 23.5493 94.7171 23.5948 95.0269 23.5948H96.0655C96.357 23.5948 96.5574 23.5493 96.6667 23.4582C96.7761 23.3489 96.8307 23.1484 96.8307 22.8569Z" fill="white"/>
<g clip-path="url(#clip0_8034_4137)">
<path d="M4.43337 21.2357L0 16.8727L5.79826 11.2768C5.79826 11.2768 7.26476 9.60207 10.9327 11.2336C10.9327 11.2336 3.82035 15.2876 4.42998 21.239L4.43337 21.2357Z" fill="white"/>
<path d="M18.5662 12.6719L22.9962 17.0382L17.1979 22.6341C17.1979 22.6341 15.7314 24.3088 12.0635 22.6773C12.0635 22.6773 19.1758 18.6233 18.5662 12.6752V12.6719Z" fill="white"/>
<path d="M7.60645 9.96683C7.60645 9.96683 12.6257 7.07254 17.2284 11.2993C17.2284 11.2993 19.0675 12.9309 17.347 16.4067C17.347 16.4067 13.5605 9.93028 7.60645 9.96683Z" fill="white"/>
<path d="M15.4063 24.0336C15.4063 24.0336 10.387 26.9279 5.78431 22.7011C5.78431 22.7011 3.94526 21.0696 5.66577 17.5938C5.66577 17.5938 9.45225 24.0702 15.4029 24.0369L15.4063 24.0336Z" fill="white"/>
</g>
<defs>
<linearGradient id="paint0_linear_8034_4137" x1="64.4023" y1="0" x2="64.4023" y2="39" gradientUnits="userSpaceOnUse">
<stop stop-color="white"/>
<stop offset="0.0001" stop-color="white" stop-opacity="0.988001"/>
<stop offset="1" stop-color="white" stop-opacity="0.2"/>
</linearGradient>
<clipPath id="clip0_8034_4137">
<rect width="23" height="16" fill="white" transform="translate(0 9)"/>
</clipPath>
</defs>
</svg>
